<?xml version="1.0" encoding="UTF-8" standalone="no"?>
<!-- Created with Inkscape (http://www.inkscape.org/) -->

<svg
   width="1080"
   height="1080"
   viewBox="0 0 1080 1080"
   version="1.1"
   id="svg5"
   sodipodi:docname="logo.base.svg"
   inkscape:version="1.2.2 (b0a8486541, 2022-12-01)"
   xmlns:inkscape="http://www.inkscape.org/namespaces/inkscape"
   xmlns:sodipodi="http://sodipodi.sourceforge.net/DTD/sodipodi-0.dtd"
   xmlns="http://www.w3.org/2000/svg"
   xmlns:svg="http://www.w3.org/2000/svg">
  <sodipodi:namedview
     id="namedview7"
     pagecolor="#ffffff"
     bordercolor="#000000"
     borderopacity="0.25"
     inkscape:showpageshadow="2"
     inkscape:pageopacity="0.0"
     inkscape:pagecheckerboard="0"
     inkscape:deskcolor="#d1d1d1"
     inkscape:document-units="px"
     showgrid="true"
     inkscape:zoom="0.43703704"
     inkscape:cx="107.54237"
     inkscape:cy="734.49153"
     inkscape:window-width="1920"
     inkscape:window-height="1043"
     inkscape:window-x="0"
     inkscape:window-y="0"
     inkscape:window-maximized="1"
     inkscape:current-layer="layer1">
    <inkscape:grid
       type="xygrid"
       id="grid111" />
  </sodipodi:namedview>
  <defs
     id="defs2" />
  <g
     inkscape:label="Layer 1"
     inkscape:groupmode="layer"
     id="layer1">
    <path
       d="m 267.97469,139.36091 c 26.7242,-17.4398 55.0715,-32.2343 84.6121,-44.209297 29.5407,-11.975 60.2747,-21.1305 91.7722,-27.2922 31.4976,-6.1617 63.7587,-9.3297 96.3536,-9.3297 32.5948,0 64.8559,3.1679 96.3535,9.3297 31.4975,6.1617 62.2316,15.3172 91.7722,27.2922 29.5407,11.974997 57.888,26.769497 84.6121,44.209297 26.7242,17.4398 51.8252,37.5249 74.8732,60.0811 23.0481,22.5561 43.5712,47.1214 61.3913,73.2753 17.8201,26.15378 32.9373,53.89611 45.1734,82.80632 12.23621,28.91021 21.59131,58.98831 27.88741,89.81366 6.2961,30.82535 9.5332,62.39796 9.5332,94.29719 0,31.89923 -3.2371,63.47184 -9.5332,94.29719 -6.2961,30.82535 -15.6512,60.90344 -27.88741,89.81365 -12.2361,28.91022 -27.3533,56.65254 -45.1734,82.80636 -17.8201,26.15383 -38.3432,50.71913 -61.3913,73.27533 -23.048,22.5561 -48.149,42.6412 -74.8732,60.081"
       style="fill:none;stroke:#ef562f;stroke-width:74.2;stroke-opacity:1"
       id="path12219" />
    <path
       d="m 812.46409,939.22165 c -26.6701,17.52235 -54.9716,32.40443 -84.475,44.47073 -29.5035,12.06629 -60.2091,21.31682 -91.6873,27.57582 -31.4785,6.2591 -63.7296,9.5269 -96.3243,9.6277 -32.5947,0.1007 -64.8655,-2.9674 -96.3819,-9.0318 -31.5164,-6.0642 -62.2787,-15.12464 -91.8562,-27.00823 -29.5776,-11.88361 -57.9705,-26.59037 -84.7484,-43.94745 -26.778,-17.35708 -51.94097,-37.36447 -75.05856,-59.84928 -23.1178,-22.48473 -43.71672,-46.98644 -61.6176,-73.08507 -17.90097,-26.09856 -33.1038,-53.794 -45.42932,-82.66624 -12.32552,-28.87224 -21.77353,-58.92126 -28.16497,-89.72699 -6.39134,-30.80574 -9.7261,-62.36819 -9.82472,-94.26726 -0.0986,-31.89908 3.04081,-63.48155 9.24157,-94.32622 6.20075,-30.84468 15.46272,-60.95155 27.60948,-89.89946 12.14666,-28.94788 27.178,-56.73686 44.9171,-82.9457 17.7392,-26.20879 38.18625,-50.83749 61.16442,-73.46479 22.97817,-22.6273 48.01699,-42.7899 74.687,-60.3122"
       style="fill:none;stroke:#fdac24;stroke-width:74.2;stroke-opacity:1"
       id="path12219-7" />
    <path
       d="m 922.87039,444.36404 c 5.9188,24.5259 9.3749,49.54607 10.3538,74.6947 0.9789,25.14864 -0.5191,50.42581 -4.5085,75.46545 -3.9894,25.03974 -10.4699,49.84199 -19.4561,74.04097 -8.9859,24.19889 -20.2935,47.29893 -33.6714,69.02782 -13.3778,21.72883 -28.8259,42.08658 -46.093,60.80076 -17.2672,18.71426 -36.3533,35.78503 -57.0074,50.94003 -20.6539,15.15507 -42.8757,28.39435 -66.414,39.44557 -23.5383,11.05132 -47.9112,19.68825 -72.7492,25.89163 -24.8378,6.20341 -50.1408,9.97336 -75.5391,11.29057 -25.3984,1.3173 -50.8922,0.18186 -76.1119,-3.42539 -25.2199,-3.60727 -50.1656,-9.68633 -74.4678,-18.25641 -24.302,-8.57008 -47.463,-19.45571 -69.2111,-32.4116 -21.7484,-12.9559 -42.0838,-27.98209 -60.7355,-44.83349 -18.6516,-16.85134 -35.6191,-35.52787 -50.63134,-55.78431 -15.01221,-20.25643 -28.06904,-42.09285 -38.89912,-65.26411 -10.83003,-23.17114 -19.21158,-47.20261 -25.13032,-71.72847"
       style="fill:none;stroke:#4a4585;stroke-width:74.6679;stroke-dasharray:none;stroke-opacity:1"
       id="path12219-5" />
    <path
       d="m 163.39323,633.70991 c -5.99654,-24.50788 -9.53186,-49.51757 -10.59064,-74.66313 -1.05876,-25.14563 0.35909,-50.42713 4.26892,-75.47866 3.90992,-25.05165 10.31175,-49.87338 19.221,-74.09926 8.90928,-24.22589 20.14346,-47.35997 33.45233,-69.12889 13.30878,-21.76911 28.69228,-42.17337 45.89985,-60.93943 17.2078,-18.76623 36.2395,-35.89443 56.8453,-51.11163 20.6058,-15.2172 42.7854,-28.5233 66.2885,-39.6455 23.5032,-11.1223 47.8486,-19.8325 72.6667,-26.1108 24.8181,-6.2782 50.1088,-10.1244 75.5029,-11.5182 25.3941,-1.3937 50.8914,-0.3351 76.1225,3.1961 25.2313,3.5312 50.1961,9.5352 74.5253,18.032 24.3292,8.4968 47.5245,19.3125 69.3138,32.2029 21.7892,12.8902 42.1724,27.855 60.8773,44.6501 18.7051,16.7952 35.7317,35.42045 50.8083,55.63155 15.0763,20.21121 28.2025,42.00815 39.1059,65.14659 10.9037,23.13844 19.3614,47.1445 25.3579,71.65236"
       style="fill:none;stroke:#bd3d65;stroke-width:74.6679;stroke-dasharray:none;stroke-opacity:1"
       id="path12219-7-3" />
    <g
       aria-label="S"
       id="text17455"
       style="font-size:192px;white-space:pre;inline-size:113.066;fill:#b62d0f;stroke:#4a4585;stroke-width:76.018;fill-opacity:1"
       transform="matrix(8.7343847,0,0,8.7343847,-4951.6027,-3447.1226)">
      <path
         d="m 652.36368,425.90395 -0.0144,7.06762 c -3.94127,-1.69434 -7.54235,-4.04672 -11.03809,-4.87849 -3.49574,-0.83177 -6.87153,-1.24765 -10.12737,-1.24765 -5.65487,0 -10.02455,0.9858 -13.10902,2.9574 -3.05021,1.97161 -4.57531,4.77498 -4.57531,8.41012 0,3.04981 1.01102,5.36028 3.03307,6.93141 2.05632,1.54031 5.92905,2.78796 11.6182,3.74295 l 6.27176,1.15525 c 7.74547,1.32466 13.45176,3.66594 17.11885,7.02383 3.70137,3.32707 6.92676,7.618 6.67489,13.21908 -0.31876,7.08866 -0.45112,12.04065 -6.58662,17.53504 -4.96943,3.4503 -13.65237,7.67617 -23.2828,7.67617 -3.63283,0 -9.3969,-0.75444 -13.77612,-2.60255 -4.31729,-1.64959 -6.99649,-3.22264 -11.1134,-6.4424 l -0.0911,-11.39341 c 4.22159,2.90335 8.18548,5.72622 11.95822,7.53829 4.14106,1.98897 8.06289,2.77573 11.96989,2.77573 5.92906,0 12.38243,-1.12117 15.57173,-3.26479 4.63656,-3.11635 5.00143,-6.52491 5.00143,-10.4065 0,-3.38869 -2.78641,-6.57883 -5.1169,-8.48882 -2.29623,-1.90999 -6.08328,-3.34248 -11.36117,-4.29747 l -6.32317,-1.10902 c -7.74546,-1.38629 -13.34893,-3.55813 -16.81041,-6.51554 -3.46146,-2.9574 -5.19219,-7.07003 -5.19219,-12.3379 0,-6.09965 2.42693,-11.94639 7.19073,-15.45831 4.79807,-3.51191 11.23937,-6.51273 19.63601,-6.51273 3.59855,0 7.37218,0.61619 11.03148,1.58508 4.29234,1.1365 7.47382,2.88008 11.44913,5.40508 z"
         style="font-size:96px;fill:#b62d0f;stroke:none;stroke-width:79.0416;fill-opacity:1"
         id="path17609"
         sodipodi:nodetypes="ccsscsccccscscccsssscccsscsscc" />
    </g>
    <g
       aria-label="S"
       id="text17455-1"
       style="font-size:192px;white-space:pre;inline-size:113.066;fill:#0fb2b6;fill-opacity:1;stroke:#4a4585;stroke-width:76.018"
       transform="matrix(8.7343847,0,0,8.7343847,-4950.9682,-3447.0581)">
      <path
         d="m 613.49949,438.21295 c 0,3.04981 1.01102,5.36028 3.03307,6.93141 2.05632,1.54031 5.92905,2.78796 11.6182,3.74295 l 6.27176,1.15525 c 7.74547,1.32466 13.45176,3.66594 17.11885,7.02383 3.70137,3.32707 6.92676,7.618 6.67489,13.21908 -0.31876,7.08866 -0.45112,12.04065 -6.58662,17.53504 -4.96943,3.4503 -13.65237,7.67617 -23.2828,7.67617 -3.63283,0 -9.3969,-0.75444 -13.77612,-2.60255 -4.31729,-1.64959 -6.99649,-3.22264 -11.1134,-6.4424 l -0.0911,-11.39341 c 4.22159,2.90335 8.18548,5.72622 11.95822,7.53829 4.14106,1.98897 8.06289,2.77573 11.96989,2.77573 5.92906,0 12.38243,-1.12117 15.57173,-3.26479 4.63656,-3.11635 5.00143,-6.52491 5.00143,-10.4065 0,-3.38869 -2.78641,-6.57883 -5.1169,-8.48882 -2.29623,-1.90999 -6.08328,-3.34248 -11.36117,-4.29747 l -6.32317,-1.10902 c -7.74546,-1.38629 -13.34893,-3.55813 -16.81041,-6.51554 -3.46146,-2.9574 -5.19219,-7.07003 -5.19219,-12.3379 2.10292,-3.017 10.51569,-5.68222 10.43584,-0.73935 z"
         style="font-size:96px;fill:#4a4585;fill-opacity:1;stroke:none;stroke-width:79.0416"
         id="path17609-2"
         sodipodi:nodetypes="cccccscscccsssscccscc" />
      <path
         d="m 658.23624,470.36715 c -0.31876,7.08866 -0.45112,12.04065 -6.58662,17.53504 -4.96943,3.4503 -13.65237,7.67617 -23.2828,7.67617 -3.63283,0 -9.3969,-0.75444 -13.77612,-2.60255 -4.31729,-1.64959 -6.99649,-3.22264 -11.1134,-6.4424 L 603.3862,475.14 c 4.22159,2.90335 8.18548,5.72622 11.95822,7.53829 4.14106,1.98897 8.06289,2.77573 11.96989,2.77573 5.92906,0 12.38243,-1.12117 15.57173,-3.26479 4.63656,-3.11635 5.00143,-6.52491 5.00143,-10.4065 3.94855,-1.64837 6.56608,-8.44931 10.34877,-1.41558 z"
         style="font-size:96px;white-space:pre;inline-size:113.066;fill:#bd3d65;fill-opacity:1;stroke:none;stroke-width:79.0416"
         id="path17609-2-7"
         sodipodi:nodetypes="ccscccssscc" />
      <path
         d="m 628.27218,495.57607 c -3.6344,0 -9.40097,-0.76161 -13.78209,-2.62727 -4.31916,-1.66525 -6.99952,-3.25324 -11.11822,-6.50358 l -0.0911,-11.50161 c 4.22342,2.93092 8.18902,5.78061 11.9634,7.60988 4.14285,2.00786 8.06638,2.80208 11.97507,2.80208 -4.55672,3.58883 11.96699,4.82302 1.05294,10.2205 z"
         style="font-size:96px;white-space:pre;inline-size:113.066;fill:#63b698;fill-opacity:1;stroke:none;stroke-width:79.4333"
         id="path17609-2-7-0"
         sodipodi:nodetypes="ccccscc" />
    </g>
  </g>
</svg>
