<?xml version="1.0" encoding="UTF-8" standalone="no"?>
<!-- Created with Inkscape (http://www.inkscape.org/) -->

<svg
   width="1080"
   height="1080"
   viewBox="0 0 1080 1080"
   version="1.1"
   id="svg5"
   sodipodi:docname="logo.base2.svg"
   inkscape:version="1.2.2 (b0a8486541, 2022-12-01)"
   xmlns:inkscape="http://www.inkscape.org/namespaces/inkscape"
   xmlns:sodipodi="http://sodipodi.sourceforge.net/DTD/sodipodi-0.dtd"
   xmlns="http://www.w3.org/2000/svg"
   xmlns:svg="http://www.w3.org/2000/svg">
  <sodipodi:namedview
     id="namedview7"
     pagecolor="#ffffff"
     bordercolor="#000000"
     borderopacity="0.25"
     inkscape:showpageshadow="2"
     inkscape:pageopacity="0.0"
     inkscape:pagecheckerboard="0"
     inkscape:deskcolor="#d1d1d1"
     inkscape:document-units="px"
     showgrid="true"
     inkscape:zoom="0.43703704"
     inkscape:cx="471.35593"
     inkscape:cy="777.9661"
     inkscape:window-width="1920"
     inkscape:window-height="1043"
     inkscape:window-x="0"
     inkscape:window-y="0"
     inkscape:window-maximized="1"
     inkscape:current-layer="layer1">
    <inkscape:grid
       type="xygrid"
       id="grid111" />
  </sodipodi:namedview>
  <defs
     id="defs2" />
  <g
     inkscape:label="Layer 1"
     inkscape:groupmode="layer"
     id="layer1">
    <path
       d="M 267.97469,139.36091 C 435.59497,27.199091 671.17267,32.729275 833.18247,152.93403 989.42996,262.91381 1067.68,471.8513 1017.4828,656.904 988.21238,772.60168 913.41892,875.10279 813.45039,939.90801"
       style="fill:none;stroke:#ef562f;stroke-width:74.2;stroke-opacity:1"
       id="path12219" />
    <path
       d="M 812.46409,939.22165 C 645.19144,1051.9013 409.59777,1047.0996 247.21703,927.39638 90.630225,817.90026 11.734488,609.20582 61.359175,423.99877 90.271628,308.21113 164.74778,205.47925 264.51539,140.36521"
       style="fill:none;stroke:#fdac24;stroke-width:74.2;stroke-opacity:1"
       id="path12219-7" />
    <path
       d="M 922.87039,444.36404 C 967.30641,616.2752 874.31943,808.39463 714.83845,884.5331 558.22685,966.39392 348.67814,925.20845 238.2494,786.1426 202.00289,742.07937 175.93792,689.73137 162.59841,634.25776"
       style="fill:none;stroke:#4a4585;stroke-width:74.6679;stroke-dasharray:none;stroke-opacity:1"
       id="path12219-5" />
    <path
       d="m 163.39323,633.70991 c -44.98131,-171.75979 47.38845,-364.17348 206.63413,-440.79384 156.36929,-82.33848 366.03894,-41.76758 476.8991,96.95383 36.38543,43.95303 62.61677,96.22159 76.13263,151.65611"
       style="fill:none;stroke:#bd3d65;stroke-width:74.6679;stroke-dasharray:none;stroke-opacity:1"
       id="path12219-7-3" />
    <g
       aria-label="S"
       id="text17455"
       style="font-size:192px;white-space:pre;inline-size:113.066;fill:#b62d0f;stroke:#4a4585;stroke-width:76.018;fill-opacity:1"
       transform="matrix(8.7343847,0,0,8.7343847,-4951.6027,-3447.1226)">
      <path
         d="m 652.36368,425.90395 c -0.005,2.35587 -0.01,4.71175 -0.0144,7.06762 -5.88577,-2.9655 -11.90499,-6.0886 -18.70109,-6.04816 -6.95631,-0.29764 -16.2059,0.25116 -19.5053,7.55091 -2.94011,6.62599 2.65747,12.88079 9.20645,13.43195 10.41076,2.47221 22.5918,2.48941 30.20407,11.13554 5.12708,4.72558 5.28106,12.08354 4.05648,18.45827 -1.01407,7.94741 -8.22307,12.63355 -15.13149,15.16852 -12.85774,5.44281 -28.40064,2.70173 -39.02108,-6.21687 -0.0304,-3.7978 -0.0607,-7.59561 -0.0911,-11.39341 7.62668,5.52494 16.26236,11.32169 26.16869,10.26166 6.58057,-0.36022 15.32546,-1.56842 17.79591,-8.78082 2.3197,-6.5123 -2.31809,-13.30981 -8.45009,-15.5596 -10.25692,-3.83638 -22.61638,-2.54359 -31.25363,-10.25741 -8.25501,-8.28873 -4.85652,-24.11796 5.50156,-29.13329 11.99974,-7.35153 27.94914,-5.38143 39.24234,2.38256 -0.002,0.64418 -0.005,1.28835 -0.007,1.93253 z"
         style="font-size:96px;fill:#b62d0f;fill-opacity:1;stroke:none;stroke-width:79.0416"
         id="path17609"
         sodipodi:nodetypes="ccsscsccccscscccsssscccsscsscc" />
    </g>
    <g
       aria-label="S"
       id="text17455-1"
       style="font-size:192px;white-space:pre;inline-size:113.066;fill:#0fb2b6;fill-opacity:1;stroke:#4a4585;stroke-width:76.018"
       transform="matrix(8.7343847,0,0,8.7343847,-4950.9682,-3447.0581)">
      <path
         d="m 613.49949,438.21295 c -0.55585,7.00697 7.0419,9.43976 12.60298,10.30252 9.92192,1.91204 21.26412,2.7829 28.07879,11.23236 5.38422,5.58904 4.52763,14.10146 2.57242,20.9484 -3.21422,8.42558 -12.57128,11.74845 -20.56755,13.9089 -11.39697,2.61106 -23.78194,-0.73758 -32.72881,-8.1534 -0.0304,-3.7978 -0.0607,-7.59561 -0.0911,-11.39341 7.62668,5.52494 16.26236,11.32169 26.16869,10.26166 6.58057,-0.36022 15.32546,-1.56842 17.79591,-8.78082 2.3197,-6.5123 -2.31809,-13.30981 -8.45009,-15.5596 -10.25692,-3.83638 -22.61638,-2.54359 -31.25363,-10.25741 -3.1641,-3.23905 -7.32513,-10.99864 -2.03445,-13.85326 2.24347,-1.29798 7.83027,-2.89385 7.90684,1.34406 z"
         style="font-size:96px;fill:#4a4585;fill-opacity:1;stroke:none;stroke-width:79.0416"
         id="path17609-2"
         sodipodi:nodetypes="cccccscscccsssscccscc" />
      <path
         d="m 658.23624,470.36715 c 0.25739,7.14056 -1.89208,15.24002 -8.61882,18.85549 -11.21703,7.13462 -25.99766,8.53722 -38.00561,2.5034 -2.87465,-2.05514 -8.74386,-3.24536 -8.15351,-7.5685 -0.024,-3.00585 -0.0481,-6.01169 -0.0721,-9.01754 7.62668,5.52494 16.26236,11.32169 26.16869,10.26166 6.58057,-0.36022 15.32546,-1.56842 17.79591,-8.78082 -0.44445,-4.70585 4.25876,-9.65608 8.86411,-8.8762 0.89494,0.67498 1.48674,1.66085 2.02133,2.62251 z"
         style="font-size:96px;white-space:pre;inline-size:113.066;fill:#bd3d65;fill-opacity:1;stroke:none;stroke-width:79.0416"
         id="path17609-2-7"
         sodipodi:nodetypes="ccscccssscc" />
      <path
         d="m 628.27218,495.57607 c -9.03389,-0.0316 -17.97545,-3.33692 -24.90031,-9.13085 -0.0304,-3.83387 -0.0607,-7.66774 -0.0911,-11.50161 7.10086,5.03531 14.79282,10.67305 23.93847,10.41196 -3.63415,4.00971 11.75966,5.30364 1.05294,10.2205 z"
         style="font-size:96px;white-space:pre;inline-size:113.066;fill:#63b698;fill-opacity:1;stroke:none;stroke-width:79.4333"
         id="path17609-2-7-0"
         sodipodi:nodetypes="ccccscc" />
    </g>
  </g>
</svg>
