<?xml version="1.0" encoding="utf-8"?>
<!-- Generator: Adobe Illustrator 27.5.0, SVG Export Plug-In . SVG Version: 6.00 Build 0)  -->
<svg version="1.1" xmlns="http://www.w3.org/2000/svg" xmlns:xlink="http://www.w3.org/1999/xlink" x="0px" y="0px"
	 viewBox="0 0 750 500" style="enable-background:new 0 0 750 500;" xml:space="preserve">
<g id="OBJECTS">
	<path style="fill:#E6EDD1;" d="M175.03,142.26c0,0,48.248-73.154,111.592-66.486s37.346,51.186,66.248,50.241
		c28.902-0.945,89.093-80.451,159.784-30.822c99.38,69.77,2.851,132.608,45.627,130.63s66.809,64.596,25.172,124.554
		s-99.663,54.392-114.94,48.355c-19.818-7.833-45.305-43.693-68.568-25.265c-23.264,18.428-48.194,68.191-100.552,45.528
		c-79.501-34.412-4.407-130.68-80.337-113.343C143.124,322.987,115.988,227.012,175.03,142.26z"/>
	<path style="fill:#CE7D67;" d="M269.126,331.536c0,0,31.925-0.597,42.705-7.1c13.026-7.857,25.878-24.763,28-30.352
		c2.669-7.031,3.733-4.435,3.733-4.435l-1.853,6.072c0,0,3.458-7.051,3.945-5.457c0.487,1.594-0.121,7.072-0.121,7.072
		s3.968-7.887,3.21-2.985c-0.759,4.902-11.686,34.299-33.275,47.422c-10.883,6.615-46.794,5.399-46.794,5.399L269.126,331.536z"/>
	<g>
		<circle style="fill:#E6B11B;" cx="384.068" cy="242.379" r="66.431"/>
		<path style="fill:#E6B11B;" d="M384.068,347.679h-31.287c0,0,1.82-40.004-16.722-59.387h48.009V347.679z"/>
		<path style="fill:#E6B11B;" d="M384.068,347.679h31.287c0,0-1.82-40.004,16.722-59.387h-48.009V347.679z"/>
		<path style="fill:#2D2327;" d="M389.642,377.581h-11.594c-14.244,0-25.792-11.547-25.792-25.792v-19.201h63.177v19.201
			C415.433,366.034,403.886,377.581,389.642,377.581z"/>
		<path style="fill:#2D2327;" d="M386.767,392.428h-7.932c-9.745,0-17.646-7.9-17.646-17.646v-9.457
			c0-9.745,7.9-17.646,17.646-17.646h7.932c9.745,0,17.646,7.9,17.646,17.646v9.457
			C404.413,384.528,396.512,392.428,386.767,392.428z"/>
	</g>
	<path style="fill:#2E2427;" d="M399.772,332.963c-0.02,0-0.04-0.001-0.06-0.005c-0.204-0.033-0.344-0.225-0.311-0.43
		c0.115-0.716,11.406-71.642,5.083-79.378c-0.795-0.972-1.614-1.356-2.505-1.171c-2.278,0.469-5.045,4.537-8.003,11.764
		c-2.264,5.532-3.833,10.986-3.849,11.041c-0.052,0.184-0.234,0.302-0.426,0.266c-0.189-0.033-0.322-0.204-0.309-0.396
		c0.015-0.211,1.42-21.212-4.386-26.96c-0.579-0.573-1.135-0.761-1.702-0.577c-3.95,1.288-7.602,18.814-8.676,25.459
		c-0.029,0.181-0.185,0.314-0.368,0.315c-0.154-0.01-0.34-0.13-0.372-0.31c-0.03-0.17-3.07-17.12-10.495-24.452
		c-0.277-0.274-0.494-0.375-0.654-0.3c-2.07,1.009-2.622,24.402,4.343,84.716c0.023,0.206-0.124,0.392-0.33,0.416
		c-0.206,0.024-0.391-0.123-0.416-0.33c-0.978-8.468-9.396-82.812-3.926-85.476c0.323-0.159,0.851-0.211,1.51,0.44
		c6.145,6.068,9.273,18.123,10.309,22.881c1.066-5.871,4.472-22.648,8.841-24.072c0.846-0.276,1.674-0.022,2.462,0.757
		c4.75,4.702,4.919,18.457,4.743,24.578c1.935-6.022,6.772-19.51,11.551-20.495c1.178-0.242,2.264,0.239,3.238,1.431
		c6.535,7.995-4.451,77.037-4.922,79.972C400.112,332.832,399.953,332.963,399.772,332.963z"/>
	<path style="fill:#FFFFFF;" d="M407.656,192.89c0,0,30.285,12.604,27.3,34.063c-2.984,21.459-21.87-16.773-36.611-22.762
		S394.855,189.419,407.656,192.89z"/>
	<path style="fill:#FFFFFF;" d="M441.216,237.39c0,0,3.771,17.558-2.267,19.401s-7.201-7.43-6.096-15.123
		S440.574,233.615,441.216,237.39z"/>
	<g>
		<path style="fill:#D16F83;" d="M303.389,450.248h77.735c0,0-10.764-14.124-21.466-7.062c0,0-5.273-18.405-19.994-18.053
			c-14.721,0.352-17.723,18.053-17.723,18.053S310.349,435.99,303.389,450.248z"/>
		<path style="fill:#2E2427;" d="M355.469,442.821c-0.155,0-0.299-0.096-0.353-0.25c-2.158-6.077-5.418-10.1-9.426-11.638
			c-2.995-1.148-5.361-0.516-5.383-0.51c-0.202,0.055-0.407-0.062-0.462-0.262c-0.056-0.2,0.062-0.406,0.261-0.462
			c0.105-0.028,10.294-2.652,15.717,12.621c0.07,0.195-0.032,0.41-0.228,0.479C355.553,442.815,355.51,442.821,355.469,442.821z"/>
		<path style="fill:#2E2427;" d="M375.679,448.474c-0.105,0-0.209-0.044-0.283-0.129c-6.34-7.283-12.245-2.961-12.493-2.773
			c-0.166,0.123-0.401,0.092-0.525-0.073c-0.125-0.166-0.092-0.401,0.073-0.526c0.067-0.05,6.718-4.924,13.512,2.88
			c0.136,0.156,0.119,0.394-0.037,0.529C375.854,448.444,375.766,448.474,375.679,448.474z"/>
	</g>
	<g>
		<path style="fill:#CA4F24;" d="M97.828,259.307h107.094c0,0-14.829-19.458-29.573-9.729c0,0-7.265-25.355-27.545-24.871
			c-20.28,0.484-24.416,24.871-24.416,24.871S107.417,239.664,97.828,259.307z"/>
		<path style="fill:#2E2427;" d="M169.576,249.173c-0.253,0-0.49-0.157-0.579-0.409c-7.105-20.007-19.751-16.822-20.286-16.674
			c-0.328,0.086-0.666-0.104-0.755-0.43c-0.09-0.327,0.101-0.664,0.428-0.755c0.14-0.041,14.267-3.681,21.771,17.448
			c0.113,0.32-0.053,0.672-0.373,0.785C169.714,249.162,169.645,249.173,169.576,249.173z"/>
		<path style="fill:#2E2427;" d="M197.419,256.961c-0.172,0-0.342-0.071-0.463-0.211c-8.648-9.936-16.74-4.061-17.079-3.806
			c-0.272,0.202-0.657,0.149-0.86-0.122c-0.204-0.271-0.151-0.655,0.12-0.86c0.091-0.071,9.329-6.841,18.746,3.981
			c0.223,0.256,0.196,0.644-0.06,0.867C197.706,256.911,197.562,256.961,197.419,256.961z"/>
	</g>
	<g>
		<path style="fill:#87BECA;" d="M581.783,251.098h86.192c0,0-11.935-15.66-23.801-7.83c0,0-5.847-20.407-22.169-20.017
			s-19.651,20.017-19.651,20.017S589.501,235.29,581.783,251.098z"/>
		<path style="fill:#2E2427;" d="M639.529,242.943c-0.204,0-0.394-0.127-0.466-0.329c-5.72-16.102-15.899-13.54-16.328-13.42
			c-0.266,0.073-0.534-0.084-0.607-0.346c-0.073-0.263,0.081-0.535,0.344-0.608c0.117-0.032,11.484-2.96,17.522,14.043
			c0.092,0.257-0.042,0.541-0.3,0.632C639.641,242.933,639.585,242.943,639.529,242.943z"/>
		<path style="fill:#2E2427;" d="M661.938,249.211c-0.138,0-0.275-0.057-0.373-0.17c-6.961-7.997-13.472-3.269-13.746-3.063
			c-0.219,0.163-0.529,0.119-0.693-0.098c-0.164-0.218-0.121-0.528,0.097-0.692c0.073-0.057,7.507-5.507,15.088,3.204
			c0.18,0.206,0.158,0.518-0.048,0.698C662.169,249.171,662.053,249.211,661.938,249.211z"/>
	</g>
	<g>
		<path style="fill:#E6B11B;" d="M357.906,79.933h77.735c0,0-10.764-14.124-21.466-7.062c0,0-5.273-18.405-19.994-18.053
			c-14.721,0.352-17.723,18.053-17.723,18.053S364.867,65.676,357.906,79.933z"/>
		<path style="fill:#2E2427;" d="M409.986,72.507c-0.155,0-0.299-0.096-0.353-0.25c-5.183-14.593-14.423-12.256-14.811-12.148
			c-0.202,0.055-0.407-0.063-0.461-0.262c-0.055-0.2,0.062-0.406,0.261-0.461c0.105-0.028,10.294-2.652,15.717,12.62
			c0.07,0.195-0.032,0.41-0.228,0.479C410.071,72.5,410.028,72.507,409.986,72.507z"/>
		<path style="fill:#2E2427;" d="M430.196,78.16c-0.105,0-0.209-0.044-0.283-0.129c-6.34-7.285-12.245-2.961-12.493-2.773
			c-0.166,0.125-0.401,0.093-0.526-0.073c-0.125-0.165-0.092-0.4,0.073-0.525c0.067-0.05,6.718-4.927,13.512,2.88
			c0.136,0.156,0.119,0.393-0.037,0.529C430.371,78.13,430.283,78.16,430.196,78.16z"/>
	</g>
	<g>
		<path style="fill:#E1AE8D;" d="M259.412,353.341c0,0-41.455,4.641-59.966,1.501s-28.754-60.37-31.908-59.372
			c-3.155,0.998-9.463,2.465-5.925-0.64c2.454-2.154,3.335-0.822,8.025-4.148c5.775-4.095,26.96,40.381,39.464,43.81
			c6.808,1.867,39.397-7.53,39.397-7.53L259.412,353.341z"/>
		<path style="fill:#427B83;" d="M234.59,331.579c0,0-25.489,2.913-30.689-2.001c-3.759-3.552-18.618-27.841-22.872-30.935
			c-1.747-1.271-10.947,4.971-10.529,5.948c0.418,0.977,14.419,39.158,18.343,44.525c10.369,14.184,47.624,9.088,47.624,9.088
			L234.59,331.579z"/>
		<path style="fill:#2E2427;" d="M211.005,337.282c-3.243,0-6.177-0.18-7.658-0.723c-4.36-1.599-24.454-35.919-25.308-37.379
			c-0.104-0.179-0.044-0.409,0.134-0.513c0.18-0.105,0.409-0.044,0.513,0.134c5.775,9.882,21.509,35.803,24.919,37.054
			c4.156,1.524,21.163-0.005,21.334-0.022c0.21-0.015,0.389,0.133,0.408,0.34c0.019,0.206-0.133,0.389-0.34,0.408
			C224.544,336.622,217.208,337.282,211.005,337.282z"/>
		<path style="fill:#E1AE8D;" d="M252.21,372.903c0,0-38.182,17.706-56.457,13.4c-18.275-4.306-29.193-55.004-32.405-54.209
			s-7.539,3.942-5.217-0.152s2.806-0.474,6.784-2.73c6.158-3.492,25.865,35.407,32.241,38.437c6.377,3.03,35.62-26.366,35.62-26.366
			L252.21,372.903z"/>
		<path style="fill:#87BECA;" d="M228.29,346.977c0,0-26.758,18.03-31.595,16.544c-4.837-1.486-19.683-26.752-21.354-27.259
			c-1.672-0.507-9.037,2.446-10.163,7.699c-1.126,5.253,20.938,47.026,31.826,46.344c27.97-1.751,55.206-17.402,55.206-17.402
			L228.29,346.977z"/>
		<path style="fill:#E1AE8D;" d="M296.533,306.669c0,0,7.807,13.868,15.514,9.829c7.706-4.039-0.003-16.433-3.906-20.628
			S293.9,302.804,296.533,306.669z"/>
		<path style="fill:#E1AE8D;" d="M307.95,316.375c0,0-7.185,12.39-10.205,14.768s-7.989-8.436-6.804-11.272
			c0.673-1.611,5.802-5.488,8.817-12.496C299.757,307.376,309.118,311.824,307.95,316.375z"/>
		<path style="fill:#F3D78A;" d="M299.689,315.174c0,0,1.125-1.113,1.181-2.955c0.056-1.842-4.62-2.276-4.69-4.661
			c-0.07-2.386,3.603,1.203,3.668,0.725c0.065-0.478-3.667-3.468-1.788-6.183c1.878-2.714,6.379-1.403,8.282-2.185
			c2.939-1.207,2.039-3.56,1.443-4.698c-1.605-3.065-9.701-3.679-13.441,0.194c-3.74,3.873-1.047,6.625-2.118,7.697
			c-1.071,1.072-2.486,4.734-1.444,6.892c1.041,2.158,5.135,2.13,4.616,4.153C294.879,316.175,297.925,316.686,299.689,315.174z"/>
		<path style="fill:#CA4F24;" d="M225.611,332.224c0,0,57.836-19.404,65.188-14.003c22.004,16.166,10.901,35.028,5.711,38.497
			c-5.19,3.469-43.535,22.333-55.165,22.333C234.952,379.051,221.953,343.228,225.611,332.224z"/>
		<path style="fill:#E1AE8D;" d="M287.899,325.326c0,0,21.349,17.904,32.714,17.451c11.365-0.453,35.425-40.261,36.551-36.84
			c1.126,3.422-1.782,5.162-1.782,5.162s5.49-6.522,5.96-3.708c0.47,2.814-3.053,5.906-3.053,5.906s8.648-7.826,5.097-2.198
			c-2.127,3.372-24.013,51.246-42.773,50.083c-16.624-1.031-41.272-23.134-41.272-23.134L287.899,325.326z"/>
		<path style="fill:#CA4F24;" d="M290.799,318.221c0,0,21.463,20.022,23.655,21.535c2.192,1.513-6.079,17.109-9.051,18.409
			c-2.972,1.299-31.196-24.137-31.196-24.137S278.015,315.156,290.799,318.221z"/>
		<path style="fill:#F3D78A;" d="M298.059,302.099c0,0-1.046,1.941,0.673,3.047c1.719,1.106,4.068,2.743,3.817,4.333
			s4.019,5.333,5.389,4.349c1.37-0.984,0.765-4.354,3.045-5.106c2.28-0.752,3.498-2.973,4.622,0.359s3.2,6.289-1.72,8.701
			c-4.92,2.412-12.119-4.249-13.015-5.562c-0.896-1.314,0.192-3.646-3.691-6.175C294.062,304.013,297.225,301.775,298.059,302.099z"
			/>
		<g>
			<path style="fill:#CA4F24;" d="M171.569,331.918c0,0-7.083,5.466-7.508,4.953c-0.425-0.513-2.122-3.24-2.684-3.482
				c-0.563-0.242-8.863,1.916-9.947,0.931s14.262-10.389,14.262-10.389L171.569,331.918z"/>
			<path style="fill:#2E2427;" d="M162.57,335.122c-0.062,0-0.125-0.015-0.183-0.048c-0.181-0.102-0.245-0.33-0.144-0.511
				l2.431-4.329c0.101-0.181,0.33-0.246,0.511-0.144c0.181,0.102,0.245,0.33,0.144,0.511l-2.431,4.329
				C162.828,335.054,162.701,335.122,162.57,335.122z"/>
			<path style="fill:#2E2427;" d="M160.826,334.911c-0.038,0-0.077-0.006-0.115-0.018c-0.197-0.064-0.306-0.275-0.242-0.472
				l1.574-4.882c0.063-0.197,0.275-0.304,0.472-0.242c0.197,0.064,0.306,0.275,0.242,0.472l-1.574,4.882
				C161.131,334.81,160.984,334.911,160.826,334.911z"/>
			<path style="fill:#2E2427;" d="M158.585,334.467c-0.032,0-0.065-0.004-0.098-0.013c-0.2-0.054-0.319-0.26-0.265-0.46l1.156-4.298
				c0.054-0.2,0.261-0.317,0.46-0.265c0.2,0.054,0.319,0.26,0.265,0.46l-1.156,4.298
				C158.902,334.357,158.751,334.467,158.585,334.467z"/>
		</g>
		<g>
			<path style="fill:#CA4F24;" d="M176.332,294.805c0,0-7.083,5.466-7.508,4.953c-0.425-0.513-2.122-3.24-2.684-3.482
				c-0.563-0.242-8.863,1.916-9.947,0.931s14.262-10.389,14.262-10.389L176.332,294.805z"/>
			<path style="fill:#2E2427;" d="M167.333,298.01c-0.062,0-0.125-0.015-0.183-0.048c-0.181-0.101-0.245-0.33-0.144-0.511
				l2.431-4.329c0.101-0.181,0.331-0.246,0.511-0.144c0.181,0.102,0.245,0.33,0.144,0.511l-2.431,4.329
				C167.592,297.941,167.464,298.01,167.333,298.01z"/>
			<path style="fill:#2E2427;" d="M165.588,297.798c-0.038,0-0.077-0.006-0.115-0.018c-0.197-0.064-0.306-0.275-0.242-0.472
				l1.574-4.882c0.064-0.197,0.276-0.304,0.472-0.242c0.197,0.064,0.306,0.275,0.242,0.472l-1.574,4.882
				C165.894,297.697,165.747,297.798,165.588,297.798z"/>
			<path style="fill:#2E2427;" d="M163.348,297.354c-0.032,0-0.065-0.004-0.098-0.013c-0.2-0.054-0.319-0.26-0.265-0.46l1.156-4.298
				c0.054-0.2,0.262-0.317,0.46-0.265c0.2,0.054,0.319,0.26,0.265,0.46l-1.156,4.298
				C163.665,297.244,163.514,297.354,163.348,297.354z"/>
		</g>
		<g>
			<path style="fill:#2E2427;" d="M313.625,308.745c-0.01,0-0.021,0-0.032-0.001l-2.797-0.241c-0.207-0.018-0.359-0.199-0.341-0.406
				c0.018-0.207,0.204-0.357,0.406-0.341l1.787,0.154l-3.363-3.428c-0.145-0.148-0.142-0.385,0.005-0.531
				c0.149-0.145,0.385-0.142,0.531,0.005l4.072,4.152c0.11,0.112,0.138,0.281,0.071,0.423
				C313.902,308.662,313.77,308.745,313.625,308.745z"/>
			<path style="fill:#2E2427;" d="M311.926,312.37c-0.821,0-1.793-0.629-2.025-0.788c-0.171-0.117-0.215-0.35-0.098-0.521
				c0.117-0.17,0.349-0.215,0.522-0.099c0.575,0.393,1.53,0.819,1.83,0.604c0.164-0.119,0.233-0.609-0.065-1.627
				c-0.059-0.199,0.056-0.407,0.254-0.466c0.2-0.06,0.407,0.056,0.465,0.255c0.373,1.271,0.303,2.071-0.214,2.445
				C312.401,312.314,312.17,312.37,311.926,312.37z"/>
			<circle style="fill:#2E2427;" cx="305.439" cy="306.721" r="1.216"/>
			<circle style="fill:#2E2427;" cx="311.316" cy="302.859" r="1.216"/>
		</g>
		<path style="fill:#E1AE8D;" d="M299.426,308.259c0,0-3.049-2.703-3.708-0.77s1.979,4.219,4.085,4.278
			C301.908,311.827,299.426,308.259,299.426,308.259z"/>
		<path style="fill:#2E2427;" d="M298.011,354.391c-0.065,0-0.132-0.017-0.192-0.053c-24.675-14.698-26.993-26.865-27.079-27.376
			c-0.034-0.204,0.103-0.397,0.307-0.432c0.209-0.035,0.398,0.103,0.433,0.306c0.021,0.122,2.398,12.367,26.724,26.857
			c0.178,0.106,0.236,0.336,0.13,0.514C298.263,354.326,298.138,354.391,298.011,354.391z"/>
		<path style="fill:#2E2427;" d="M301.604,354.391c-0.134,0-0.265-0.072-0.332-0.199c-0.097-0.183-0.027-0.41,0.156-0.507
			c4.919-2.609,10.581-15.652,10.638-15.784c0.081-0.191,0.304-0.278,0.493-0.196c0.19,0.082,0.278,0.303,0.196,0.493
			c-0.235,0.547-5.824,13.418-10.975,16.15C301.723,354.377,301.663,354.391,301.604,354.391z"/>
		<path style="fill:#2E2427;" d="M242.019,374.103c-0.12,0-0.238-0.058-0.31-0.164c-10.21-14.996-10.672-35.677-10.675-35.884
			c-0.003-0.207,0.162-0.378,0.369-0.381c0.219,0.005,0.377,0.162,0.381,0.369c0.003,0.205,0.464,20.667,10.545,35.475
			c0.117,0.171,0.073,0.405-0.099,0.521C242.166,374.082,242.092,374.103,242.019,374.103z"/>
		<path style="fill:#2E2427;" d="M196.628,368.079c-0.996,0-1.857-0.158-2.545-0.508c-7.013-3.564-23.225-28.604-23.911-29.668
			c-0.112-0.174-0.062-0.406,0.112-0.518c0.173-0.113,0.406-0.063,0.518,0.112c0.167,0.259,16.787,25.934,23.621,29.406
			c6.732,3.417,32.797-13.729,33.059-13.903c0.172-0.114,0.405-0.067,0.52,0.106c0.114,0.173,0.067,0.406-0.106,0.52
			C226.914,354.274,205.924,368.079,196.628,368.079z"/>
		<path style="fill:#2E2427;" d="M227.799,363.729c-2.722,0-7.653-0.467-11.436-3.446c-0.163-0.128-0.191-0.364-0.062-0.527
			c0.128-0.162,0.364-0.191,0.527-0.062c5.147,4.053,12.822,3.203,12.899,3.194c0.205-0.026,0.392,0.123,0.417,0.329
			c0.024,0.206-0.123,0.392-0.328,0.417C229.718,363.644,228.959,363.729,227.799,363.729z"/>
		<path style="fill:#2E2427;" d="M304.224,299.365c-0.128,0-0.253-0.066-0.323-0.184c-0.989-1.672-2.089-2.615-3.268-2.806
			c-1.349-0.217-2.364,0.653-2.375,0.662c-0.155,0.135-0.392,0.121-0.529-0.035c-0.136-0.155-0.122-0.391,0.033-0.528
			c0.051-0.045,1.28-1.106,2.978-0.841c1.414,0.224,2.695,1.289,3.806,3.166c0.106,0.178,0.047,0.409-0.132,0.514
			C304.355,299.348,304.289,299.365,304.224,299.365z"/>
		<path style="fill:#2E2427;" d="M305.725,298.725c-0.202,0-0.368-0.16-0.374-0.363c-0.137-4.391-4.087-4.672-4.255-4.682
			c-0.207-0.012-0.365-0.189-0.352-0.396c0.012-0.207,0.185-0.368,0.396-0.352c0.048,0.003,4.803,0.34,4.962,5.408
			c0.006,0.207-0.156,0.38-0.363,0.387C305.733,298.725,305.729,298.725,305.725,298.725z"/>
	</g>
	<g>
		<path style="fill:#2D2327;" d="M532.575,292.931c0,0-11.633-15.332,3.891-24.889c12.728-7.836,11.42,5.52,25.209-2.372
			c9.373-5.365,16.946-1.082,19.717,5.6c2.361,5.691,8.955-6.404,15.281,2.332c6.326,8.737,2.775,15.936-8.385,17.793
			c-11.16,1.857-7.157,10.418-19.441,10.455s-11.745-5.808-15.546-5.564C547.514,296.658,537.322,306.622,532.575,292.931z"/>
		<path style="fill:#85361E;" d="M528.902,301.8c0,0-26.403-14.568-17.368-28.982c9.035-14.414,24.902,0.553,27.122,1.475
			c2.436,1.012-0.195-2.6-0.195-2.6s1.581,1.508,2.722,1.435c1.311-0.084-1.303-3.3-1.303-3.3s2.965,2.481,3.415,1.283
			c1.047-2.792-20.009-21.645-36.63-13.19c-15.435,7.852-20.924,27.733,6.058,53.342L528.902,301.8z"/>
		<path style="fill:#D16F83;" d="M530.187,301.717c0,0-11.277-11.324-14.094-11.71c-2.816-0.385-13.179,10.496-13.058,12.421
			c0.122,1.924,7.151,10.812,14.407,12.788S530.187,301.717,530.187,301.717z"/>
		<path style="fill:#85361E;" d="M547.327,312.98c0,0,1.583,31.738-19.253,53.372c0,0-31.309-15.05-34.265-19.121
			c0,0,11.901-7.515,15.99-17.687S547.327,312.98,547.327,312.98z"/>
		<path style="fill:#85361E;" d="M491.876,350.851c0,0-23.672,4.704-33.928,14.532c-10.256,9.828-4.734,54.656-7.279,56.446
			s-6.088,0.901-4.33,2.384c1.758,1.482,5.624,0.158,9.667-1.287c4.043-1.445,5.4-36.428,10.24-42.824
			c12.159-16.07,33.977-17.2,33.977-17.2s-22.726,14.973-19.465,29.803c3.261,14.829,25.924,29.638,26.88,31.023
			c0.955,1.385-1.421,4.904,1.314,4.738c2.735-0.166,4.87-5.956,4.72-7.423c-0.14-1.364-18.519-26.553-17.068-32.661
			c1.45-6.109,27.498-13.687,30.121-24.478L491.876,350.851z"/>
		<path style="fill:#85361E;" d="M549.265,310.512c0,0,18.925,17.696,26.066,26.975c15.24,19.803,12.558,39.212,11.802,42.707
			c-0.755,3.495-2.195-3.516-2.195-3.516s-0.354,4.498-1.82,4.889c-1.466,0.391-1.641-4.498-1.641-4.498s-0.451,6.035-2.087,4.927
			c-1.635-1.108-3.713-26.709-13.34-34.541c-9.627-7.833-22.884-20.096-22.884-20.096L549.265,310.512z"/>
		<path style="fill:#D16F83;" d="M507.752,326.665c0,0,1.652-1.033,2.676-9.664c1.302-10.974,18.071-23.267,36.003-10.133
			c13.429,9.836,8.032,17.68-1.349,31.055l-2.423,4.103C542.659,342.027,514.122,334.841,507.752,326.665z"/>
		<path style="fill:#D16F83;" d="M565.241,322.446c0,0-16.831-17.299-22.615-17.522c-3.748-0.145-5.628,13.733-3.626,17.534
			s17.424,17.164,17.424,17.164S566.74,328.054,565.241,322.446z"/>
		<path style="fill:#85361E;" d="M548.731,288.796c0,0-11.726,10.76-17.798,4.528c-6.072-6.232,5.103-15.621,10.116-18.397
			C546.061,272.151,552.433,285.938,548.731,288.796z"/>
		<path style="fill:#85361E;" d="M532.575,292.931c0,0-0.328,4.819-1.721,9.003c-1.098,3.298-1.53,3.543-0.253,6.217
			c1.412,2.957,10.548-1.353,11.467-4.286c0.522-1.666,0.367-5.245,2.57-12.549C544.638,291.316,534.611,288.696,532.575,292.931z"
			/>
		<path style="fill:#85361E;" d="M547.072,289.147c0,0,4.041-0.528,3.501,1.442c-0.539,1.97-4.005,2.383-5.781,1.251
			C543.016,290.709,547.072,289.147,547.072,289.147z"/>
		<g>
			<path style="fill:#87BECA;" d="M459.434,417.3c0,0-8.783-1.701-8.933-1.052c-0.15,0.649-0.44,3.848-0.834,4.317
				c-0.394,0.469-8.779,2.269-9.305,3.636c-0.526,1.367,17.409,2.876,17.409,2.876L459.434,417.3z"/>
			<path style="fill:#2E2427;" d="M454.265,421.964c-0.08,0.005-0.163-0.015-0.234-0.063l-4.117-2.775
				c-0.172-0.116-0.217-0.349-0.101-0.521c0.116-0.172,0.35-0.216,0.521-0.101l4.117,2.775c0.172,0.116,0.217,0.349,0.101,0.521
				C454.484,421.9,454.377,421.957,454.265,421.964z"/>
			<path style="fill:#2E2427;" d="M452.284,423.816c-0.105,0.007-0.212-0.03-0.291-0.111l-3.6-3.655
				c-0.145-0.147-0.144-0.385,0.004-0.53c0.147-0.146,0.385-0.144,0.53,0.004l3.6,3.655c0.145,0.147,0.144,0.385-0.004,0.53
				C452.456,423.775,452.371,423.811,452.284,423.816z"/>
			<path style="fill:#2E2427;" d="M449.845,424.885c-0.111,0.007-0.224-0.035-0.304-0.125l-2.963-3.32
				c-0.138-0.155-0.124-0.392,0.03-0.53c0.154-0.138,0.391-0.124,0.53,0.03l2.963,3.32c0.138,0.155,0.124,0.392-0.03,0.53
				C450.005,424.849,449.926,424.88,449.845,424.885z"/>
		</g>
		<g>
			<path style="fill:#87BECA;" d="M510.032,414.754c0,0-6.294,6.358-5.837,6.843c0.457,0.485,2.955,2.504,3.126,3.092
				s-2.99,8.56-2.146,9.757c0.845,1.197,12.063-12.878,12.063-12.878L510.032,414.754z"/>
			<path style="fill:#2E2427;" d="M506.123,423.713c-0.149,0.002-0.292-0.086-0.352-0.233c-0.079-0.192,0.013-0.411,0.205-0.49
				l4.595-1.881c0.192-0.079,0.411,0.013,0.489,0.205c0.079,0.192-0.013,0.411-0.205,0.49l-4.595,1.881
				C506.215,423.703,506.169,423.712,506.123,423.713z"/>
			<path style="fill:#2E2427;" d="M506.118,425.47c-0.178,0.002-0.338-0.123-0.372-0.305c-0.039-0.203,0.095-0.4,0.298-0.439
				l5.039-0.963c0.206-0.038,0.4,0.094,0.439,0.298c0.039,0.203-0.095,0.4-0.298,0.439l-5.039,0.963
				C506.162,425.468,506.14,425.47,506.118,425.47z"/>
			<path style="fill:#2E2427;" d="M506.284,427.748c-0.186,0.002-0.349-0.134-0.376-0.323c-0.029-0.205,0.114-0.395,0.319-0.424
				l4.407-0.619c0.199-0.028,0.395,0.114,0.424,0.319c0.029,0.205-0.114,0.395-0.319,0.424l-4.407,0.619
				C506.316,427.746,506.3,427.748,506.284,427.748z"/>
		</g>
		<g>
			<path style="fill:#2E2427;" d="M535.91,286.493c-0.004,0-0.009,0.001-0.013,0l-2.806,0.083c-0.157,0.005-0.3-0.089-0.359-0.234
				c-0.059-0.146-0.021-0.312,0.095-0.418l4.3-3.915c0.155-0.139,0.391-0.128,0.53,0.025c0.139,0.153,0.129,0.39-0.025,0.53
				l-3.551,3.233l1.793-0.053c0.207-0.006,0.38,0.157,0.386,0.364C536.267,286.311,536.112,286.481,535.91,286.493z"/>
			<path style="fill:#2E2427;" d="M534.77,290.29c-0.325,0.021-0.635-0.037-0.876-0.233c-0.494-0.403-0.52-1.206-0.075-2.454
				c0.069-0.196,0.284-0.296,0.479-0.228c0.195,0.069,0.297,0.284,0.228,0.479c-0.355,1-0.314,1.493-0.156,1.621
				c0.287,0.234,1.264-0.139,1.86-0.5c0.175-0.106,0.408-0.05,0.515,0.127c0.108,0.177,0.05,0.408-0.127,0.515
				C536.397,289.752,535.54,290.241,534.77,290.29z"/>
			<circle style="fill:#2E2427;" cx="541.347" cy="285.018" r="1.216"/>
			<circle style="fill:#2E2427;" cx="535.698" cy="280.83" r="1.216"/>
		</g>
		<path style="fill:#2E2427;" d="M536.543,295.864c-2.985,0.192-4.74-1.332-4.766-1.355c-0.154-0.138-0.167-0.374-0.03-0.528
			c0.137-0.155,0.375-0.168,0.529-0.031c0.139,0.122,3.453,2.958,8.938-0.525c0.174-0.11,0.407-0.06,0.518,0.116
			c0.111,0.175,0.059,0.407-0.116,0.518C539.682,295.288,537.972,295.773,536.543,295.864z"/>
		<path style="fill:#2E2427;" d="M546.567,334.039c-0.099,0.006-0.2-0.026-0.279-0.099c-0.152-0.14-0.162-0.378-0.021-0.53
			c0.076-0.082,7.598-8.339,7.809-19.244c0.004-0.208,0.178-0.375,0.382-0.368c0.207,0.004,0.372,0.175,0.367,0.382
			c-0.216,11.197-7.93,19.655-8.008,19.739C546.75,333.993,546.659,334.033,546.567,334.039z"/>
		<path style="fill:#2E2427;" d="M518.053,324.508c-0.056,0.004-0.113-0.005-0.169-0.028c-0.289-0.121-7.08-3.016-7.546-7.939
			c-0.285-3.013,1.879-6.07,6.431-9.084c0.173-0.114,0.405-0.068,0.52,0.106c0.115,0.173,0.067,0.405-0.105,0.52
			c-4.303,2.849-6.355,5.671-6.099,8.387c0.422,4.475,7.021,7.291,7.088,7.319c0.191,0.08,0.281,0.3,0.201,0.491
			C518.318,324.414,518.191,324.499,518.053,324.508z"/>
		<path style="fill:#2E2427;" d="M534.178,330.051c-0.122,0.008-0.244,0.014-0.37,0.018c-6.659,0.218-9.591-2.93-9.713-3.064
			c-0.138-0.153-0.127-0.39,0.026-0.529c0.153-0.138,0.391-0.128,0.53,0.024c0.028,0.031,2.845,3.025,9.133,2.819
			c6.194-0.209,7.289-5.223,7.333-5.436c0.043-0.203,0.243-0.331,0.443-0.292c0.202,0.042,0.333,0.24,0.292,0.442
			C541.84,324.091,540.632,329.637,534.178,330.051z"/>
		<path style="fill:#E6B11B;" d="M499.56,342.834c0,0-27.703,3.196-40.842,17.72c-10.122,11.189-10.015,43.855-9.784,45.215
			c0.231,1.36,12.779,3.573,14.241,2.915c1.462-0.658,3.975-24.247,5.158-26.029c5.885-8.866,27.714-16.876,27.714-16.876
			s-19.963,12.687-18.869,23.851c0.982,10.029,18.068,26.98,18.878,26.259c0.81-0.721,10.444-5.852,10.16-7.338
			s-8.259-17.357-7.695-20.292c0.563-2.936,33.063-15.02,33.46-26.396C531.98,361.862,505.873,348.948,499.56,342.834z"/>
		<path style="fill:#2E2427;" d="M504.274,411.064c-0.137,0.009-0.274-0.058-0.348-0.185c-6.632-11.337-10.14-18.895-8.449-23.978
			c0.784-2.355,2.685-4.14,5.815-5.46c9.092-3.833,20.646-13.569,20.762-13.666c0.159-0.133,0.396-0.114,0.529,0.044
			c0.134,0.158,0.114,0.395-0.044,0.529c-0.116,0.099-11.757,9.907-20.955,13.785c-2.918,1.231-4.683,2.868-5.394,5.006
			c-1.595,4.792,2.026,12.492,8.385,23.362c0.104,0.179,0.044,0.409-0.134,0.513C504.387,411.044,504.331,411.06,504.274,411.064z"
			/>
		<path style="fill:#2E2427;" d="M461.842,409.171c-0.018,0.001-0.037,0.001-0.056,0c-0.206-0.017-0.36-0.198-0.343-0.405
			c0.094-1.142,2.345-28.007,6.427-32.447c4.058-4.414,23.967-11.428,24.812-11.725c0.197-0.072,0.41,0.035,0.478,0.23
			s-0.035,0.41-0.23,0.478c-0.205,0.072-20.576,7.248-24.508,11.525c-3.909,4.251-6.208,31.723-6.231,32
			C462.176,409.016,462.024,409.16,461.842,409.171z"/>
		<path style="fill:#2E2427;" d="M496.071,366.153c-0.08,0.005-0.163-0.016-0.232-0.063c-0.134-0.089-0.196-0.254-0.154-0.41
			c0.722-2.671,2.775-7.641,2.861-7.851c0.08-0.192,0.3-0.282,0.491-0.203c0.192,0.079,0.282,0.299,0.203,0.49
			c-0.019,0.045-1.636,3.961-2.512,6.693c1.524-1.1,4.713-3.293,7.624-4.6c0.187-0.085,0.411-0.001,0.496,0.188
			c0.085,0.189,0,0.411-0.189,0.496c-3.904,1.753-8.339,5.148-8.383,5.182C496.215,366.122,496.143,366.148,496.071,366.153z"/>
		<path style="fill:#2D2327;" d="M539.616,275.796c0,0,2.369-2.514,5.111,0.722c2.743,3.235-5.152,14.944,3.901,12.577
			C557.68,286.729,550.537,267.188,539.616,275.796z"/>
	</g>
	<g>
		<g>
			<polygon style="fill:#CA4F24;" points="287.882,98.957 288.554,99.949 290.781,103.243 291.453,104.236 315.479,99.714 
				309.365,90.675 307.138,87.381 301.024,78.342 			"/>
			
				<rect x="284.443" y="95.958" transform="matrix(0.8283 -0.5602 0.5602 0.8283 -7.1032 179.7505)" style="fill:#2E2427;" width="10.65" height="11.016"/>
			<path style="fill:#FFFFFF;" d="M281.259,105.126l1.953,2.888c1.167,1.726,3.513,2.179,5.239,1.012l-6.181-9.139
				C280.545,101.054,280.092,103.4,281.259,105.126z"/>
			
				<rect x="292.559" y="105.755" transform="matrix(0.8283 -0.5602 0.5602 0.8283 -11.1215 183.9395)" style="fill:#2E2427;" width="4.069" height="8.725"/>
		</g>
		<path style="fill:#CD7D67;" d="M248.118,125.579c0,0,24.479,9.949,30.081,9.199c5.602-0.75,10.589-21.926,14.192-25.448
			c4.667-4.562,9.239,1.474,9.252,3.266s-3.598,2.414-3.598,2.414s-1.225,25.945-12.616,33.884
			c-11.391,7.939-37.773-5.425-38.586-4.659S248.118,125.579,248.118,125.579z"/>
		<path style="fill:#E6B11B;" d="M248.118,136.555c0,0,5.551,11.597,0,15.875c-5.551,4.278-15.414,6.384-16.555,0.577
			C230.422,147.199,248.118,136.555,248.118,136.555z"/>
		<path style="fill:#CD7D67;" d="M227.575,124.457c0,0-22.95-12.814-48.062-4.848c-22.535,7.148-23.736,55.681-22.648,56.994
			c1.088,1.313,2.972-4.317,2.972-4.317s-1.69,5.135-0.568,5.54c1.123,0.404,3.067-4.561,3.067-4.561s-1.717,5.202-0.194,5.404
			c1.523,0.202,16.368-38.808,21.524-41.063c10.435-4.563,29.606,7.835,29.606,7.835L227.575,124.457z"/>
		<path style="fill:#E6B11B;" d="M234.159,120.176c0,0,14.057,2.527,16.076,11.135c2.019,8.609-12.352,29.378-13.603,44.637
			c-1.251,15.258-31.381,23.956-36.637,20.762S196.611,106.699,234.159,120.176z"/>
		<path style="fill:#D37674;" d="M231.752,178.524c0,0,28.313-20.442,38.447-7.556c13.602,17.296,22.83,42.539,26.788,43.354
			s9.068-0.496,8.462,0.376c-0.606,0.871-4.84,5.826-9.306,6.428c-4.466,0.602-26.247-37.414-36.05-36.813
			c-9.803,0.602-34.775,18.322-34.775,18.322S207.129,193.614,231.752,178.524z"/>
		<path style="fill:#D37674;" d="M203.547,192.277c0,0,32.417-44.707,46.163-31.537c21.654,20.746,22.928,66.371,28.57,67.736
			c1.485,0.359,7.018,1.751,7.018,1.751c4.649,1.931-13.147,3.377-13.147,3.377c-8.31-19.274-27.147-52.228-34.222-50.536
			c-7.075,1.692-3.045,14.304-17.174,17.095C206.626,202.955,203.547,192.277,203.547,192.277z"/>
		<path style="fill:#D16F83;" d="M231.947,173.685c0,0,23.391-14.438,36.519-6.202c13.129,8.236,26.406,38.13,24.677,39.95
			c-1.729,1.82-6.586,7.117-8.822,4.603c-2.236-2.514-18.216-25.195-24.985-23.802c-6.768,1.394-32.079,19.47-37.092,18.85
			C217.232,206.463,215.928,183.333,231.947,173.685z"/>
		<path style="fill:#D16F83;" d="M274.279,213.475c0,0-6.285,5.621-9.475,5.621c-3.189,0-21.47-34.543-25.102-35.844
			s-4.662,19.78-17.89,24.963c-24.912,9.76-25.419-16.389-23.73-19.399s30.859-37.632,46.055-33.88S273.153,205.596,274.279,213.475
			z"/>
		<path style="fill:#E6B11B;" d="M226.375,118.761c0,0-25.175-2.881-30.014-1.847s-8.254,23.514-7.504,25.015
			c0.75,1.501,19.761,2.251,24.013,4.002L226.375,118.761z"/>
		<path style="fill:#E6B11B;" d="M243.48,122.541c0,0,15.269,6.497,19.739,8.214c2.148,0.825-5.562,18.997-7.131,19.75
			c-1.568,0.753-19.376-5.253-19.376-5.253S239.679,124.192,243.48,122.541z"/>
		<g>
			<path style="fill:#E6B11B;" d="M268.529,226.963c0,0,8.217-3.538,8.502-2.935c0.285,0.602,1.251,3.665,1.737,4.039
				c0.485,0.374,9.061,0.342,9.867,1.566s-16.393,6.527-16.393,6.527L268.529,226.963z"/>
			<path style="fill:#2E2427;" d="M274.519,230.42c-0.093,0-0.186-0.034-0.259-0.104c-0.15-0.143-0.155-0.38-0.012-0.53l3.43-3.59
				c0.143-0.15,0.381-0.155,0.53-0.012c0.15,0.143,0.155,0.38,0.012,0.53l-3.43,3.59C274.717,230.381,274.618,230.42,274.519,230.42
				z"/>
			<path style="fill:#2E2427;" d="M276.85,231.807c-0.069,0-0.138-0.019-0.2-0.058c-0.176-0.11-0.228-0.342-0.117-0.517l2.736-4.339
				c0.111-0.175,0.344-0.227,0.517-0.117c0.176,0.11,0.228,0.342,0.117,0.517l-2.736,4.339
				C277.096,231.745,276.974,231.807,276.85,231.807z"/>
			<path style="fill:#2E2427;" d="M279.46,232.33c-0.062,0-0.126-0.015-0.184-0.048c-0.181-0.102-0.244-0.33-0.143-0.511
				l2.186-3.877c0.102-0.18,0.33-0.245,0.511-0.143c0.181,0.102,0.244,0.33,0.143,0.511l-2.186,3.877
				C279.719,232.262,279.592,232.33,279.46,232.33z"/>
		</g>
		<g>
			<path style="fill:#E6B11B;" d="M289.627,216.742c0,0,6.098-6.546,6.601-6.11c0.503,0.437,2.621,2.851,3.216,2.998
				c0.595,0.147,8.432-3.334,9.663-2.539c1.23,0.795-12.379,12.574-12.379,12.574L289.627,216.742z"/>
			<path style="fill:#2E2427;" d="M296.351,217.527c-0.043,0-0.086-0.007-0.128-0.022c-0.195-0.071-0.296-0.286-0.225-0.481
				l1.694-4.667c0.071-0.195,0.287-0.294,0.481-0.225c0.195,0.071,0.296,0.286,0.225,0.481l-1.694,4.667
				C296.648,217.433,296.505,217.527,296.351,217.527z"/>
			<path style="fill:#2E2427;" d="M299.043,217.858c-0.018,0-0.037-0.001-0.056-0.004c-0.205-0.031-0.346-0.222-0.316-0.426
				l0.758-5.073c0.031-0.204,0.221-0.343,0.426-0.316c0.205,0.031,0.346,0.222,0.316,0.426l-0.758,5.073
				C299.386,217.724,299.226,217.858,299.043,217.858z"/>
			<path style="fill:#2E2427;" d="M301.644,217.286c-0.012,0-0.025-0.001-0.037-0.002c-0.206-0.021-0.357-0.204-0.336-0.41
				l0.44-4.428c0.021-0.206,0.21-0.352,0.41-0.336c0.206,0.021,0.357,0.204,0.336,0.41l-0.44,4.428
				C301.997,217.142,301.834,217.286,301.644,217.286z"/>
		</g>
		<path style="fill:#D47974;" d="M233.13,109.241c2.716,0.716,1.739-3.119,1.739-3.119s-0.989-6.366-3.453-6.09"/>
		<path style="fill:#CD7D67;" d="M231.412,101.496c0,0,1.78,15.815,10.451,15.101c8.672-0.714,6.407-15.133,4.449-20.518
			C244.355,90.694,230.496,96.91,231.412,101.496z"/>
		<circle style="fill:#2E2427;" cx="226.901" cy="90.307" r="6.511"/>
		<path style="fill:#2E2427;" d="M246.313,96.08c0,0-5.639-5.677-9.601,0.794c-2.752,4.494-2.454,11.424-5.435,10.484
			c-2.981-0.941-6.623-8.903-1.917-14.815S246.741,88.509,246.313,96.08z"/>
		<path style="fill:#CD7D67;" d="M234.445,104.791c0,0-0.463-4.049-2.245-3.05c-1.782,0.999-1.346,4.462,0.182,5.912
			C233.909,109.104,234.445,104.791,234.445,104.791z"/>
		<g>
			<path style="fill:#2E2427;" d="M244.95,110.172c-0.074,0-0.147-0.022-0.211-0.065l-2.323-1.577
				c-0.171-0.116-0.216-0.35-0.1-0.521c0.117-0.171,0.35-0.216,0.521-0.1l1.484,1.007l-1.259-4.634
				c-0.054-0.2,0.064-0.406,0.263-0.461c0.2-0.055,0.406,0.064,0.461,0.263l1.525,5.612c0.041,0.152-0.016,0.313-0.144,0.404
				C245.103,110.149,245.026,110.172,244.95,110.172z"/>
			<path style="fill:#2E2427;" d="M242.081,112.619c-0.986,0-1.794-1.524-1.95-1.839c-0.092-0.185-0.016-0.41,0.169-0.503
				c0.187-0.092,0.411-0.016,0.503,0.169c0.311,0.624,0.939,1.467,1.301,1.421c0.202-0.024,0.501-0.418,0.738-1.452
				c0.047-0.202,0.248-0.33,0.45-0.282c0.202,0.046,0.328,0.248,0.282,0.45c-0.296,1.29-0.748,1.954-1.382,2.03
				C242.155,112.617,242.118,112.619,242.081,112.619z"/>
			<circle style="fill:#2E2427;" cx="238.612" cy="104.359" r="1.216"/>
			<circle style="fill:#2E2427;" cx="245.627" cy="103.86" r="1.216"/>
		</g>
		<path style="fill:#CD7D67;" d="M240.897,114.364c0,0-0.509,2.19-1.901,7.802c0,0-0.702,2.164-3.079,3.273
			c-2.376,1.109-8.719-4.735-9.016-6.267l5.84-13.866C232.742,105.307,240.223,111.476,240.897,114.364z"/>
		<path style="fill:#2E2427;" d="M240.388,116.93c-0.011,0-0.023,0-0.034-0.001c-0.128-0.012-3.179-0.335-6.216-4.637
			c-0.119-0.169-0.079-0.403,0.09-0.523c0.17-0.119,0.404-0.078,0.523,0.09c2.819,3.993,5.644,4.32,5.672,4.323
			c0.206,0.021,0.357,0.203,0.337,0.409C240.742,116.784,240.579,116.93,240.388,116.93z"/>
		<path style="fill:#2E2427;" d="M268.529,219.03c-0.143,0-0.28-0.082-0.343-0.221c-0.227-0.506-22.84-50.598-33.187-51.73
			c-10.355-1.122-34.466,29.552-34.708,29.862c-0.128,0.163-0.363,0.192-0.527,0.064c-0.163-0.128-0.192-0.363-0.064-0.527
			c1-1.279,24.63-31.33,35.381-30.145c10.771,1.178,32.855,50.087,33.79,52.168c0.085,0.189,0,0.411-0.188,0.496
			C268.633,219.019,268.581,219.03,268.529,219.03z"/>
		<path style="fill:#2E2427;" d="M225.753,157.453c-5.033,0-8.752-1.385-11.077-4.131c-4.179-4.937-2.318-12.39-2.237-12.705
			c0.052-0.2,0.258-0.321,0.457-0.269c0.201,0.052,0.321,0.256,0.27,0.457c-0.019,0.074-1.843,7.399,2.086,12.036
			c2.559,3.02,6.983,4.279,13.149,3.742c0.2-0.023,0.388,0.134,0.406,0.341c0.018,0.207-0.135,0.388-0.341,0.406
			C227.524,157.412,226.619,157.453,225.753,157.453z"/>
		<path style="fill:#2E2427;" d="M203.11,144.61c-0.036,0-0.072-0.005-0.108-0.016c-0.198-0.06-0.311-0.269-0.251-0.468
			c4.416-14.617,7.416-19.848,7.541-20.063c0.104-0.179,0.334-0.24,0.513-0.136c0.179,0.104,0.24,0.334,0.136,0.513
			c-0.03,0.052-3.088,5.392-7.471,19.903C203.42,144.506,203.271,144.61,203.11,144.61z"/>
		<path style="fill:#CD7D67;" d="M243.614,122.763c0,0,2.911,11.107-9.715,11.982s-12.643-16.533-12.643-16.533
			S234.262,118.487,243.614,122.763z"/>
		<path style="fill:#2E2427;" d="M244.864,154.068c-0.144,0-0.282-0.084-0.344-0.224c-0.084-0.189,0.003-0.411,0.192-0.494
			c2.867-1.261,4.752-3.056,5.605-5.335c1.325-3.545-0.322-7.108-0.339-7.144c-0.088-0.187-0.008-0.411,0.179-0.499
			c0.188-0.088,0.411-0.009,0.499,0.178c0.074,0.156,1.8,3.873,0.366,7.72c-0.924,2.48-2.946,4.42-6.008,5.767
			C244.965,154.058,244.914,154.068,244.864,154.068z"/>
		<path style="fill:#2E2427;" d="M242.716,93.536c0,0-0.791,8.191-8.494,10.099C234.222,103.635,233.899,90.667,242.716,93.536z"/>
		<path style="fill:#2E2427;" d="M249.094,103.25c0,0,1.124-10.544-6.973-13.287C242.121,89.963,241.862,96.607,249.094,103.25z"/>
		<path style="fill:#2E2427;" d="M221.812,208.59c-0.102,0-0.204-0.041-0.278-0.123c-0.139-0.154-0.128-0.391,0.025-0.53
			c0.152-0.138,15.228-13.944,17.777-24.771c0.033-0.141,0.144-0.25,0.285-0.28c0.141-0.032,0.288,0.023,0.376,0.136
			c0.263,0.337,6.45,8.3,8.358,11.366c0.11,0.176,0.056,0.407-0.12,0.517c-0.175,0.109-0.407,0.056-0.517-0.12
			c-1.587-2.549-6.333-8.738-7.846-10.698c-3.065,10.908-17.196,23.848-17.809,24.406
			C221.992,208.558,221.902,208.59,221.812,208.59z"/>
	</g>
	<path style="fill:#2E2427;" d="M381.124,167.25c-0.207,0-0.375-0.168-0.375-0.375v-20.153c0-0.207,0.168-0.375,0.375-0.375
		c0.207,0,0.375,0.168,0.375,0.375v20.153C381.499,167.082,381.332,167.25,381.124,167.25z"/>
	<path style="fill:#2E2427;" d="M455.231,267.396c0.081-0.191,0.301-0.28,0.492-0.199l18.556,7.862
		c0.191,0.081,0.28,0.301,0.199,0.492c-0.081,0.191-0.301,0.28-0.492,0.199l-18.556-7.862
		C455.239,267.807,455.15,267.587,455.231,267.396z"/>
	<path style="fill:#2E2427;" d="M358.251,171.64c-0.161,0-0.31-0.104-0.359-0.267l-5.325-17.632
		c-0.06-0.198,0.052-0.408,0.251-0.468c0.198-0.06,0.407,0.052,0.468,0.251l5.325,17.632c0.06,0.198-0.052,0.408-0.251,0.468
		C358.324,171.635,358.287,171.64,358.251,171.64z"/>
	<path style="fill:#2E2427;" d="M479.334,248.072c-0.059,0.15-0.21,0.251-0.379,0.238l-18.362-1.446
		c-0.207-0.016-0.361-0.197-0.345-0.403c0.016-0.206,0.197-0.361,0.403-0.344l18.362,1.446c0.207,0.016,0.361,0.197,0.345,0.403
		C479.355,248.002,479.347,248.038,479.334,248.072z"/>
	<path style="fill:#2E2427;" d="M434.062,161.642c0.086,0.136,0.077,0.318-0.034,0.446l-12.085,13.899
		c-0.136,0.156-0.373,0.173-0.529,0.037c-0.156-0.135-0.173-0.373-0.037-0.529l12.085-13.899c0.136-0.156,0.373-0.173,0.529-0.037
		C434.019,161.583,434.043,161.611,434.062,161.642z"/>
	<path style="fill:#2E2427;" d="M476.528,216.873c-0.008,0.161-0.119,0.305-0.283,0.346l-17.865,4.482
		c-0.201,0.051-0.405-0.071-0.455-0.273c-0.051-0.2,0.072-0.404,0.273-0.455l17.865-4.482c0.201-0.051,0.405,0.071,0.455,0.273
		C476.527,216.8,476.53,216.837,476.528,216.873z"/>
	<path style="fill:#2E2427;" d="M336.06,180.871c-0.119,0-0.235-0.056-0.308-0.161l-8.689-12.507
		c-0.118-0.17-0.075-0.404,0.095-0.522c0.17-0.118,0.404-0.076,0.522,0.094l8.689,12.507c0.118,0.17,0.075,0.404-0.095,0.522
		C336.209,180.849,336.134,180.871,336.06,180.871z"/>
	<path style="fill:#2E2427;" d="M437.058,190.446c-0.11,0.013-0.225-0.022-0.31-0.106c-0.147-0.146-0.148-0.384-0.002-0.531
		l10.733-10.804c0.145-0.147,0.383-0.148,0.531-0.002c0.147,0.146,0.148,0.384,0.002,0.531l-10.733,10.804
		C437.217,190.4,437.139,190.437,437.058,190.446z"/>
	<path style="fill:#2E2427;" d="M448.324,201.575c-0.16,0.008-0.313-0.087-0.371-0.244c-0.072-0.194,0.027-0.41,0.222-0.482
		l14.285-5.279c0.199-0.073,0.41,0.028,0.482,0.222c0.072,0.194-0.027,0.41-0.222,0.482l-14.285,5.279
		C448.398,201.565,448.36,201.573,448.324,201.575z"/>
	<path style="fill:#2E2427;" d="M321.791,197.084c-0.086,0-0.171-0.029-0.242-0.088l-11.679-9.823
		c-0.158-0.133-0.179-0.37-0.045-0.529c0.133-0.159,0.37-0.179,0.529-0.046l11.679,9.823c0.158,0.133,0.179,0.37,0.045,0.529
		C322.004,197.039,321.898,197.084,321.791,197.084z"/>
	<path style="fill:#2E2427;" d="M285.373,245.761c-0.182,0-0.341-0.132-0.37-0.317c-0.032-0.205,0.108-0.397,0.313-0.429
		l19.16-3.007c0.204-0.031,0.396,0.107,0.429,0.313c0.032,0.205-0.108,0.397-0.313,0.429l-19.16,3.007
		C285.411,245.759,285.392,245.761,285.373,245.761z"/>
	<path style="fill:#2E2427;" d="M290.762,268.013c-0.147,0-0.287-0.087-0.346-0.231c-0.08-0.191,0.011-0.411,0.202-0.491
		l13.187-5.491c0.192-0.079,0.411,0.011,0.491,0.202c0.08,0.191-0.011,0.411-0.202,0.491l-13.187,5.491
		C290.859,268.004,290.81,268.013,290.762,268.013z"/>
	<path style="fill:#2E2427;" d="M457.078,292.781c0.093,0.114,0.113,0.277,0.039,0.414c-0.098,0.183-0.326,0.251-0.508,0.153
		l-12.575-6.775c-0.182-0.099-0.251-0.326-0.153-0.508c0.098-0.183,0.326-0.251,0.508-0.153l12.575,6.775
		C457.01,292.711,457.048,292.743,457.078,292.781z"/>
	<path style="fill:#2E2427;" d="M304.224,281.329c-0.127,0-0.251-0.064-0.321-0.181c-0.107-0.178-0.051-0.408,0.127-0.515
		l8.187-4.946c0.177-0.107,0.408-0.051,0.515,0.127c0.107,0.178,0.051,0.408-0.127,0.515l-8.187,4.946
		C304.357,281.312,304.29,281.329,304.224,281.329z"/>
	<path style="fill:#2E2427;" d="M437.245,307.613c0.014,0.126-0.037,0.256-0.146,0.339c-0.165,0.126-0.4,0.094-0.526-0.071
		l-5.789-7.614c-0.125-0.164-0.094-0.4,0.071-0.526c0.165-0.125,0.4-0.094,0.526,0.071l5.789,7.614
		C437.213,307.482,437.238,307.547,437.245,307.613z"/>
	<path style="fill:#2E2427;" d="M403.074,168.269c-0.093,0.087-0.228,0.124-0.358,0.087c-0.2-0.057-0.315-0.264-0.258-0.463
		l2.62-9.199c0.056-0.199,0.264-0.315,0.463-0.258c0.199,0.057,0.315,0.264,0.258,0.463l-2.62,9.199
		C403.159,168.165,403.122,168.224,403.074,168.269z"/>
	<path style="fill:#2E2427;" d="M312.41,81.544c-0.081,0-0.163-0.026-0.232-0.081c-0.163-0.128-0.191-0.364-0.062-0.527
		l9.381-11.893c0.129-0.163,0.364-0.19,0.527-0.062c0.163,0.128,0.191,0.364,0.062,0.527l-9.381,11.893
		C312.631,81.495,312.521,81.544,312.41,81.544z"/>
	<path style="fill:#2E2427;" d="M314.82,86.973c-0.13,0-0.256-0.067-0.325-0.188c-0.103-0.18-0.041-0.409,0.138-0.512l12.552-7.203
		c0.177-0.103,0.408-0.042,0.512,0.139c0.103,0.18,0.041,0.409-0.139,0.512l-12.552,7.203
		C314.948,86.957,314.884,86.973,314.82,86.973z"/>
	<path style="fill:#2E2427;" d="M317.637,91.576c-0.188,0-0.351-0.142-0.372-0.334c-0.023-0.206,0.126-0.391,0.332-0.414
		l14.078-1.544c0.202-0.025,0.391,0.126,0.414,0.332c0.023,0.206-0.126,0.391-0.332,0.414l-14.078,1.544
		C317.665,91.576,317.651,91.576,317.637,91.576z"/>
	<g>
		<path style="fill:#E1AE8D;" d="M463.586,96.441c0,0-15.822,29.966-25.904,36.27c-6.876,4.3-23.104,5.64-33.918,6.373
			c-5.041,0.342-9.38-0.105-10.25,0.698c-1.131,1.044,3.548,2.298,3.548,2.298s-6.52-0.304-4.477,1.133
			c2.355,1.657,4.003,1.512,4.003,1.512s-5.446-0.284-4.855,1.125c1.193,2.844,39.744,7.693,54.803,2.932
			c15.06-4.761,36.084-43.99,36.084-43.99L463.586,96.441z"/>
		<path style="fill:#E1AE8D;" d="M496.391,151.925c0,0,3.729,35.137,18.122,52.221c22.648,26.88,53.418,21.245,54.862,25.883
			c1.444,4.638,1.243,8.198,2.051,3.491c0.808-4.707,1.465-10.172,1.465-10.172s-36.531-9.028-43.859-40.591
			c-2.521-10.859-5.686-25.998-5.686-25.998s11.537,31.274,27.249,35.218c15.711,3.945,35.762-2.909,41.805-5.925
			c5.254-2.622,3.841,0.896,5.312,6.441c0.342,1.29,0.861-7.173-2.849-10.633c-3.71-3.46-30.071,1.112-39.591-12.178
			c-6.75-9.423-18.052-42.772-18.052-42.772L496.391,151.925z"/>
		<path style="fill:#CA4F24;" d="M497.053,166.913c0,0,8.871,30.705,11.24,30.949c2.369,0.244,24.008-9.244,23.165-10.455
			c-0.843-1.211-5.799-24.388-5.799-24.388s9.049,20.416,10.449,20.144s20.77-13.143,21.439-15.468s-15.412-31.146-17.764-31.234
			C537.431,136.373,497.053,166.913,497.053,166.913z"/>
		<path style="fill:#CEB12E;" d="M505.835,76.667c0,0,30.168,47.8,36.275,58.337c6.107,10.537-36.232,32.809-45.057,31.909
			c-8.826-0.9-38.865-60.047-35.384-68.543S497.509,77.157,505.835,76.667z"/>
		<path style="fill:#E7B119;" d="M504.935,78.114"/>
		<path style="fill:#CEB12E;" d="M406.14,138.164c0,0-3.834,8.687-0.919,11.765c2.915,3.078,36.92,3.117,45.502-0.774
			s21.858-27.148,21.858-27.148L461.668,98.37c0,0-19.147,29.971-25.594,34.006C428.676,137.005,406.957,136.473,406.14,138.164z"/>
		<g>
			<path style="fill:#E6B11B;" d="M564.251,219.174c0,0-1.938,8.734-1.293,8.901c0.645,0.167,3.835,0.544,4.293,0.951
				c0.458,0.407,2.031,8.837,3.384,9.4c1.353,0.563,3.345-17.325,3.345-17.325L564.251,219.174z"/>
			<path style="fill:#2E2427;" d="M565.459,228.893c-0.057-0.008-0.114-0.03-0.164-0.066c-0.168-0.12-0.208-0.355-0.087-0.523
				l2.886-4.04c0.121-0.169,0.355-0.208,0.524-0.087c0.168,0.12,0.208,0.355,0.087,0.523l-2.886,4.04
				C565.734,228.858,565.593,228.913,565.459,228.893z"/>
			<path style="fill:#2E2427;" d="M566.392,230.383c-0.082-0.012-0.16-0.051-0.22-0.115c-0.142-0.152-0.133-0.389,0.018-0.53
				l3.751-3.499c0.152-0.141,0.39-0.132,0.53,0.018c0.142,0.152,0.133,0.389-0.018,0.53l-3.751,3.499
				C566.615,230.366,566.501,230.398,566.392,230.383z"/>
			<path style="fill:#2E2427;" d="M567.746,232.223c-0.088-0.013-0.171-0.056-0.233-0.129c-0.133-0.158-0.114-0.395,0.045-0.529
				l3.399-2.872c0.159-0.134,0.394-0.114,0.529,0.045c0.133,0.158,0.114,0.395-0.045,0.528l-3.399,2.872
				C567.957,232.21,567.848,232.237,567.746,232.223z"/>
		</g>
		<g>
			<path style="fill:#E6B11B;" d="M585.695,179.698c0,0,1.811,8.761,2.468,8.649c0.657-0.112,3.721-1.075,4.305-0.892
				c0.584,0.183,5.474,7.229,6.939,7.188c1.464-0.041-4.048-17.174-4.048-17.174L585.695,179.698z"/>
			<path style="fill:#2E2427;" d="M590.624,188.08c-0.006-0.001-0.013-0.002-0.02-0.003c-0.203-0.041-0.334-0.238-0.294-0.442
				l0.976-4.868c0.041-0.203,0.226-0.339,0.442-0.294c0.203,0.041,0.334,0.238,0.294,0.442l-0.976,4.868
				C591.006,187.979,590.82,188.108,590.624,188.08z"/>
			<path style="fill:#2E2427;" d="M592.085,189.056c-0.03-0.004-0.061-0.013-0.092-0.026c-0.191-0.08-0.281-0.3-0.201-0.491
				l1.987-4.729c0.08-0.191,0.296-0.285,0.492-0.2c0.191,0.08,0.281,0.3,0.201,0.491l-1.987,4.729
				C592.417,188.991,592.25,189.08,592.085,189.056z"/>
			<path style="fill:#2E2427;" d="M594.074,190.179c-0.036-0.005-0.073-0.016-0.108-0.033c-0.187-0.089-0.266-0.314-0.176-0.501
				l1.924-4.013c0.09-0.186,0.313-0.267,0.501-0.176c0.187,0.089,0.266,0.314,0.176,0.501l-1.924,4.013
				C594.393,190.122,594.232,190.202,594.074,190.179z"/>
		</g>
		<path style="fill:#D47974;" d="M481.429,75.03c-2.718,0.711-1.733-3.122-1.733-3.122s1.001-6.364,3.465-6.084"/>
		<path style="fill:#CD7D67;" d="M483.162,67.289c0,0-1.81,15.811-10.48,15.081c-8.67-0.73-6.378-15.145-4.41-20.526
			C470.24,56.463,484.087,62.704,483.162,67.289z"/>
		<g>
			<path style="fill:#2E2427;" d="M469.555,75.935c-0.058-0.008-0.115-0.031-0.164-0.066c-0.128-0.092-0.185-0.253-0.144-0.404
				l1.536-5.609c0.055-0.2,0.264-0.323,0.461-0.263c0.2,0.055,0.318,0.261,0.263,0.461l-1.269,4.631l1.486-1.004
				c0.172-0.116,0.406-0.071,0.521,0.101c0.116,0.172,0.071,0.405-0.101,0.521l-2.326,1.572
				C469.739,75.928,469.645,75.948,469.555,75.935z"/>
			<path style="fill:#2E2427;" d="M472.336,78.382c-0.621-0.09-1.064-0.754-1.353-2.029c-0.045-0.202,0.081-0.403,0.283-0.449
				c0.205-0.045,0.404,0.081,0.449,0.283c0.233,1.027,0.53,1.423,0.731,1.453c0.001,0,0.003,0,0.004,0.001
				c0.368,0.044,0.994-0.795,1.305-1.418c0.092-0.185,0.317-0.262,0.503-0.168c0.186,0.092,0.261,0.318,0.168,0.503
				c-0.163,0.327-1.029,1.953-2.065,1.828C472.353,78.384,472.344,78.383,472.336,78.382z"/>
			<circle style="fill:#2E2427;" cx="475.956" cy="70.139" r="1.216"/>
			<circle style="fill:#2E2427;" cx="468.943" cy="69.625" r="1.216"/>
		</g>
		<path style="fill:#CD7D67;" d="M473.653,80.139c0,0,0.505,2.191,1.886,7.806c0,0,0.698,2.166,3.072,3.279
			c2.374,1.113,8.728-4.719,9.028-6.25l-5.814-13.877C481.825,71.098,474.332,77.252,473.653,80.139z"/>
		<path style="fill:#CA4F24;" d="M467.298,65.256c0,0-1.931-11.208,4.72-13.261c15.876-4.901,10.576,6.536,13.823,7.95
			c10.342,4.503-1.365,15.799-3.659,13.5c-2.294-2.3-0.216-10.311-5.001-11.744C471.048,59.864,468.731,59.194,467.298,65.256z"/>
		<path style="fill:#CD7D67;" d="M480.123,70.578c0,0,0.471-4.048,2.251-3.045c1.78,1.002,1.337,4.464-0.193,5.912
			C480.651,74.893,480.123,70.578,480.123,70.578z"/>
		<path style="fill:#2E2427;" d="M471.546,60.149c-0.121-0.018-0.231-0.094-0.287-0.214c-0.81-1.754-0.87-3.294-0.18-4.578
			c1.314-2.446,4.862-3.016,5.012-3.039c0.206-0.032,0.397,0.109,0.428,0.313c0.032,0.205-0.109,0.396-0.313,0.428
			c-0.033,0.005-3.332,0.539-4.467,2.655c-0.571,1.065-0.503,2.378,0.201,3.906c0.087,0.188,0.005,0.411-0.183,0.498
			C471.689,60.15,471.615,60.159,471.546,60.149z"/>
		<path style="fill:#2E2427;" d="M473.916,60.325c-0.181-0.026-0.32-0.182-0.32-0.37c-0.014-4.195,4.336-5.913,4.521-5.984
			c0.194-0.076,0.41,0.022,0.484,0.215c0.075,0.193-0.022,0.41-0.215,0.485c-0.041,0.016-4.051,1.608-4.04,5.281
			c0.001,0.207-0.166,0.376-0.374,0.376C473.953,60.329,473.934,60.328,473.916,60.325z"/>
		<path style="fill:#2E2427;" d="M477.279,60.981c-0.198-0.029-0.339-0.208-0.319-0.408c0.375-3.771,4.052-4.126,4.09-4.129
			c0.208-0.017,0.387,0.135,0.405,0.341c0.018,0.206-0.135,0.388-0.341,0.406c-0.126,0.011-3.094,0.314-3.408,3.456
			c-0.02,0.206-0.204,0.357-0.41,0.336C477.29,60.982,477.284,60.982,477.279,60.981z"/>
		<path style="fill:#2E2427;" d="M483.714,66.244c-1.658-0.24-2.528-1.563-2.541-1.583c-0.112-0.174-0.06-0.405,0.113-0.517
			c0.172-0.112,0.405-0.061,0.518,0.112c0.062,0.095,1.559,2.329,4.504,0.647c0.178-0.102,0.408-0.041,0.511,0.14
			c0.103,0.18,0.041,0.409-0.139,0.512C485.511,66.222,484.519,66.361,483.714,66.244z"/>
		<path style="fill:#2E2427;" d="M474.172,82.704c-0.035-0.005-0.057-0.01-0.066-0.012c-0.202-0.045-0.329-0.246-0.284-0.448
			c0.045-0.201,0.246-0.325,0.444-0.285c0.001,0,0.004,0.001,0.007,0.001c0.178,0.026,3.058,0.327,6.146-6.048
			c0.09-0.187,0.313-0.267,0.501-0.174c0.186,0.09,0.265,0.315,0.174,0.501C477.852,82.937,474.681,82.778,474.172,82.704z"/>
		<path style="fill:#2E2427;" d="M554.292,171.237c-0.146-0.021-0.271-0.127-0.31-0.279c-1.873-7.339-14.638-26.719-14.767-26.914
			c-0.114-0.173-0.067-0.406,0.106-0.52c0.173-0.114,0.405-0.067,0.52,0.107c0.529,0.8,12.964,19.681,14.869,27.142
			c0.051,0.201-0.07,0.405-0.271,0.457C554.389,171.242,554.34,171.244,554.292,171.237z"/>
		<path style="fill:#2E2427;" d="M510.817,195.393c-0.095-0.014-0.185-0.064-0.247-0.147c-3.818-5.112-8.251-28.171-8.438-29.15
			c-0.039-0.203,0.095-0.4,0.298-0.439s0.4,0.095,0.439,0.298c0.045,0.238,4.587,23.867,8.302,28.842
			c0.124,0.166,0.09,0.401-0.076,0.525C511.012,195.384,510.912,195.407,510.817,195.393z"/>
		<path style="fill:#2E2427;" d="M470.786,125.309c-0.115-0.017-0.221-0.087-0.279-0.199c-4.889-9.423-6.906-20.882-6.926-20.996
			c-0.035-0.204,0.101-0.398,0.306-0.434c0.208-0.034,0.398,0.102,0.434,0.306c0.02,0.114,2.018,11.461,6.853,20.778
			c0.096,0.184,0.023,0.41-0.16,0.506C470.94,125.308,470.861,125.32,470.786,125.309z"/>
		<path style="fill:#2E2427;" d="M492.152,156.718c-0.154-0.022-0.283-0.139-0.314-0.3c-0.04-0.203,0.093-0.4,0.296-0.44
			c0.26-0.05,26.105-5.23,38.59-19.377c0.139-0.156,0.376-0.169,0.53-0.033c0.156,0.137,0.17,0.374,0.034,0.529
			c-12.655,14.34-38.748,19.566-39.01,19.617C492.235,156.723,492.193,156.724,492.152,156.718z"/>
		<path style="fill:#2E2427;" d="M525.604,163.391c-0.014-0.002-0.029-0.005-0.044-0.009c-2.817-0.758-7.91-5.301-8.125-5.494
			c-0.155-0.138-0.168-0.376-0.029-0.53c0.138-0.155,0.376-0.167,0.529-0.029c0.047,0.042,4.336,3.869,7.092,5.067l-2.031-5.508
			c-0.072-0.195,0.028-0.41,0.222-0.482c0.192-0.071,0.41,0.027,0.482,0.222l2.309,6.262c0.048,0.132,0.019,0.279-0.075,0.383
			C525.851,163.365,525.726,163.408,525.604,163.391z"/>
		<path style="fill:#2E2427;" d="M544.851,153.787c-5.49-0.796-10.045-4.965-10.244-5.15c-0.152-0.141-0.161-0.378-0.021-0.53
			c0.142-0.151,0.38-0.16,0.53-0.02c0.049,0.046,4.968,4.54,10.509,5.036c0.21,0.026,0.359,0.201,0.34,0.407
			c-0.018,0.207-0.2,0.359-0.407,0.34C545.321,153.849,545.085,153.821,544.851,153.787z"/>
		<path style="fill:#E1AE8D;" d="M499.51,81.944c0,0,8.05-15.915,37.751-14.975c17.738,0.561,41.673,39.142,41.241,40.791
			c-0.432,1.649-4.515-2.66-4.515-2.66s3.699,3.943,2.852,4.783c-0.847,0.84-4.705-2.841-4.705-2.841s3.751,3.992,2.456,4.818
			s-31.212-28.28-36.839-28.149c-11.386,0.266-18.702,13.853-18.702,13.853L499.51,81.944z"/>
		<path style="fill:#CEB12E;" d="M490.277,81.067c0,0,25.876-16.263,45.024-16.279c13.334-0.011,34.42,26.209,36.708,30.062
			c2.289,3.853-5.93,11.287-8.299,10.194s-24.427-20.54-27.437-21.194c-3.01-0.654-17.226,13.713-17.226,13.713
			S488.363,90.504,490.277,81.067z"/>
		<path style="fill:#2E2427;" d="M518.995,97.935c-0.107-0.016-0.208-0.078-0.268-0.178c-1.518-2.535-11.756-13.886-11.859-14
			c-0.139-0.154-0.127-0.391,0.027-0.53c0.153-0.138,0.39-0.127,0.53,0.027c0.424,0.469,10.391,11.52,11.946,14.117
			c0.107,0.178,0.049,0.408-0.129,0.515C519.164,97.932,519.077,97.947,518.995,97.935z"/>
	</g>
	<g>
		<circle style="fill:#E6B11B;" cx="243.584" cy="268.013" r="22.755"/>
		<circle style="fill:#FFFFFF;" cx="243.584" cy="268.074" r="17.572"/>
		<path style="fill:#2E2427;" d="M243.584,269.684c-0.101,0-0.197-0.041-0.269-0.113l-9.642-9.873
			c-0.145-0.148-0.142-0.385,0.007-0.531c0.149-0.144,0.386-0.142,0.531,0.007l9.341,9.564l7.379-9.532
			c0.128-0.163,0.363-0.193,0.527-0.067c0.164,0.127,0.194,0.363,0.067,0.527l-7.643,9.873c-0.067,0.086-0.167,0.138-0.275,0.145
			C243.598,269.683,243.591,269.684,243.584,269.684z"/>
	</g>
	<g>
		<path style="fill:#2E2427;" d="M188.753,91.15c-0.088,0-0.175-0.03-0.246-0.092c-0.156-0.136-0.173-0.373-0.037-0.529
			c0,0,0.352-0.404,1.018-1.116c0.142-0.152,0.379-0.16,0.53-0.018c0.151,0.141,0.159,0.379,0.018,0.53
			c-0.652,0.698-0.998,1.094-1.001,1.097C188.962,91.106,188.858,91.15,188.753,91.15z"/>
		<path style="fill:#2E2427;" d="M374.182,125.795c-0.35,0-0.695-0.009-1.035-0.027c-0.207-0.011-0.366-0.188-0.355-0.395
			c0.011-0.207,0.195-0.363,0.394-0.355c0.328,0.018,0.66,0.026,0.997,0.026c0.007,0,0.013,0,0.019,0
			c0.618,0,1.258-0.029,1.902-0.087c0.2-0.018,0.388,0.133,0.407,0.34c0.018,0.207-0.134,0.389-0.34,0.407
			C375.499,125.765,374.849,125.792,374.182,125.795z M370.238,125.374c-0.026,0-0.053-0.003-0.081-0.009
			c-0.983-0.218-1.951-0.524-2.876-0.911c-0.191-0.08-0.281-0.3-0.202-0.491c0.08-0.192,0.3-0.282,0.49-0.202
			c0.884,0.369,1.809,0.662,2.75,0.87c0.202,0.045,0.33,0.245,0.285,0.447C370.565,125.255,370.41,125.374,370.238,125.374z
			 M379.079,125.263c-0.174,0-0.33-0.122-0.366-0.299c-0.042-0.203,0.088-0.402,0.291-0.444c0.921-0.192,1.878-0.44,2.846-0.738
			c0.196-0.061,0.408,0.051,0.468,0.248c0.061,0.198-0.05,0.408-0.248,0.469c-0.989,0.304-1.969,0.558-2.913,0.754
			C379.13,125.261,379.105,125.263,379.079,125.263z M364.81,123.112c-0.07,0-0.139-0.019-0.202-0.059
			c-0.822-0.524-1.632-1.134-2.409-1.814c-0.156-0.137-0.172-0.374-0.035-0.529c0.136-0.156,0.374-0.171,0.529-0.036
			c0.748,0.655,1.529,1.242,2.318,1.746c0.175,0.111,0.226,0.343,0.115,0.518C365.055,123.051,364.934,123.112,364.81,123.112z
			 M360.345,119.242c-0.103,0-0.206-0.042-0.28-0.125c-0.635-0.71-1.27-1.498-1.887-2.34c-0.122-0.167-0.086-0.402,0.081-0.524
			c0.168-0.123,0.402-0.086,0.525,0.081c0.603,0.823,1.222,1.591,1.842,2.283c0.138,0.154,0.125,0.392-0.03,0.529
			C360.524,119.211,360.435,119.242,360.345,119.242z M356.818,114.465c-0.125,0-0.247-0.062-0.318-0.176
			c-0.503-0.804-1.011-1.674-1.511-2.589c-0.1-0.182-0.033-0.41,0.149-0.509c0.181-0.099,0.41-0.033,0.509,0.149
			c0.493,0.902,0.994,1.76,1.489,2.551c0.11,0.176,0.056,0.407-0.119,0.517C356.955,114.447,356.887,114.465,356.818,114.465z
			 M353.949,109.252c-0.139,0-0.271-0.077-0.336-0.21c-0.434-0.88-0.858-1.783-1.275-2.705c-0.086-0.189-0.002-0.411,0.187-0.496
			c0.186-0.085,0.411-0.001,0.497,0.187c0.413,0.915,0.835,1.81,1.264,2.683c0.092,0.186,0.015,0.411-0.171,0.502
			C354.061,109.24,354.004,109.252,353.949,109.252z M351.484,103.83c-0.146,0-0.285-0.086-0.345-0.229
			c-0.384-0.906-0.764-1.827-1.141-2.759c-0.078-0.192,0.015-0.411,0.207-0.488c0.191-0.078,0.41,0.015,0.489,0.207
			c0.375,0.929,0.753,1.846,1.135,2.747c0.081,0.191-0.008,0.411-0.199,0.492C351.583,103.82,351.533,103.83,351.484,103.83z
			 M349.247,98.308c-0.15,0-0.292-0.091-0.35-0.239c-0.359-0.918-0.718-1.845-1.077-2.779c-0.074-0.193,0.022-0.411,0.215-0.485
			c0.195-0.074,0.411,0.022,0.485,0.215c0.359,0.933,0.717,1.859,1.076,2.776c0.075,0.193-0.02,0.41-0.213,0.486
			C349.339,98.3,349.292,98.308,349.247,98.308z M347.103,92.749c-0.151,0-0.293-0.092-0.35-0.241
			c-0.354-0.923-0.711-1.85-1.071-2.778c-0.076-0.193,0.021-0.411,0.214-0.486c0.193-0.074,0.411,0.021,0.485,0.214
			c0.361,0.93,0.718,1.857,1.072,2.781c0.074,0.194-0.023,0.411-0.216,0.485C347.193,92.741,347.147,92.749,347.103,92.749z
			 M191.831,87.906c-0.096,0-0.192-0.037-0.265-0.11c-0.147-0.147-0.147-0.384-0.001-0.531c0.627-0.628,1.343-1.33,2.141-2.087
			c0.151-0.142,0.388-0.136,0.531,0.014c0.143,0.15,0.136,0.388-0.014,0.531c-0.793,0.752-1.504,1.448-2.127,2.072
			C192.023,87.87,191.927,87.906,191.831,87.906z M344.944,87.196c-0.15,0-0.29-0.09-0.349-0.237
			c-0.366-0.923-0.736-1.844-1.115-2.763c-0.078-0.192,0.013-0.411,0.204-0.49c0.192-0.078,0.411,0.013,0.49,0.204
			c0.378,0.922,0.75,1.846,1.118,2.771c0.076,0.193-0.018,0.411-0.21,0.487C345.037,87.188,344.99,87.196,344.944,87.196z
			 M269.941,84.211c-0.652,0-1.278-0.186-1.859-0.553c-0.176-0.111-0.228-0.342-0.117-0.517c0.111-0.175,0.344-0.228,0.517-0.117
			c0.78,0.492,1.678,0.569,2.501,0.222c0.189-0.08,0.41,0.009,0.491,0.2c0.08,0.191-0.009,0.411-0.2,0.491
			C270.844,84.119,270.396,84.211,269.941,84.211z M196.151,83.803c-0.103,0-0.204-0.042-0.278-0.124
			c-0.139-0.154-0.127-0.391,0.027-0.53c0.705-0.636,1.454-1.296,2.244-1.973c0.158-0.134,0.394-0.117,0.529,0.04
			s0.117,0.394-0.04,0.529c-0.784,0.673-1.529,1.329-2.23,1.961C196.33,83.772,196.241,83.803,196.151,83.803z M273.137,81.872
			c-0.049,0-0.099-0.01-0.147-0.03c-0.191-0.081-0.28-0.301-0.198-0.492c0.244-0.573,0.367-1.208,0.367-1.887
			c0-0.272-0.02-0.552-0.06-0.832c-0.029-0.205,0.114-0.395,0.319-0.424c0.204-0.03,0.395,0.114,0.424,0.319
			c0.045,0.315,0.067,0.631,0.067,0.938c0,0.781-0.144,1.514-0.427,2.181C273.422,81.786,273.283,81.872,273.137,81.872z
			 M342.674,81.683c-0.145,0-0.284-0.085-0.344-0.227c-0.391-0.91-0.791-1.815-1.199-2.713c-0.086-0.189-0.002-0.411,0.186-0.497
			c0.19-0.086,0.411-0.002,0.497,0.186c0.411,0.902,0.812,1.813,1.205,2.728c0.082,0.19-0.006,0.411-0.196,0.493
			C342.773,81.673,342.723,81.683,342.674,81.683z M266.82,81.287c-0.203,0-0.37-0.162-0.375-0.366l-0.001-0.104
			c0-0.821,0.21-1.807,0.623-2.93c0.071-0.195,0.289-0.294,0.481-0.223c0.195,0.071,0.294,0.287,0.223,0.481
			c-0.383,1.041-0.577,1.939-0.577,2.671l0.001,0.086c0.005,0.207-0.159,0.379-0.366,0.384
			C266.826,81.287,266.823,81.287,266.82,81.287z M200.675,79.927c-0.109,0-0.217-0.047-0.291-0.139
			c-0.131-0.16-0.107-0.397,0.054-0.528c0.752-0.612,1.534-1.232,2.342-1.855c0.164-0.127,0.4-0.096,0.526,0.068
			c0.126,0.164,0.096,0.4-0.068,0.526c-0.804,0.619-1.58,1.235-2.327,1.843C200.841,79.899,200.758,79.927,200.675,79.927z
			 M205.393,76.292c-0.116,0-0.23-0.053-0.304-0.155c-0.122-0.167-0.085-0.402,0.083-0.524c0.793-0.577,1.607-1.152,2.442-1.723
			c0.171-0.117,0.405-0.073,0.521,0.098c0.117,0.171,0.073,0.405-0.098,0.521c-0.829,0.567-1.637,1.138-2.425,1.71
			C205.546,76.269,205.469,76.292,205.393,76.292z M340.205,76.268c-0.138,0-0.273-0.078-0.337-0.211
			c-0.435-0.893-0.881-1.776-1.339-2.647c-0.097-0.184-0.026-0.41,0.158-0.507c0.182-0.096,0.41-0.026,0.506,0.157
			c0.462,0.878,0.912,1.768,1.349,2.668c0.091,0.187,0.013,0.411-0.173,0.502C340.316,76.255,340.26,76.268,340.205,76.268z
			 M272.501,76.161c-0.133,0-0.261-0.07-0.33-0.195c-0.427-0.782-0.994-1.568-1.683-2.337c-0.138-0.154-0.126-0.392,0.029-0.53
			c0.154-0.139,0.391-0.126,0.53,0.029c0.728,0.812,1.328,1.646,1.784,2.478c0.099,0.182,0.032,0.41-0.15,0.509
			C272.623,76.146,272.561,76.161,272.501,76.161z M268.668,75.69c-0.061,0-0.122-0.015-0.179-0.046
			c-0.182-0.099-0.249-0.327-0.15-0.509c0.45-0.826,0.977-1.691,1.566-2.573c0.114-0.172,0.347-0.219,0.52-0.103
			c0.172,0.115,0.219,0.348,0.103,0.52c-0.577,0.863-1.092,1.709-1.531,2.515C268.93,75.619,268.801,75.69,268.668,75.69z
			 M210.31,72.932c-0.124,0-0.245-0.061-0.317-0.173c-0.111-0.175-0.06-0.407,0.114-0.518c0.847-0.541,1.703-1.069,2.546-1.569
			c0.177-0.106,0.407-0.047,0.514,0.132c0.106,0.178,0.047,0.408-0.132,0.514c-0.835,0.495-1.684,1.019-2.524,1.555
			C210.449,72.913,210.379,72.932,210.31,72.932z M268.607,71.712c-0.083,0-0.167-0.027-0.237-0.084
			c-0.717-0.584-1.516-1.162-2.375-1.717c-0.174-0.112-0.224-0.345-0.111-0.519c0.112-0.174,0.344-0.224,0.519-0.111
			c0.882,0.57,1.704,1.164,2.442,1.766c0.16,0.131,0.185,0.368,0.054,0.528C268.824,71.665,268.716,71.712,268.607,71.712z
			 M337.427,71.001c-0.13,0-0.256-0.067-0.325-0.188c-0.504-0.878-1.018-1.73-1.528-2.535c-0.111-0.175-0.059-0.407,0.116-0.518
			c0.174-0.111,0.406-0.059,0.517,0.116c0.516,0.813,1.036,1.676,1.546,2.563c0.103,0.18,0.041,0.409-0.139,0.512
			C337.556,70.985,337.491,71.001,337.427,71.001z M271.958,70.729c-0.08,0-0.16-0.025-0.229-0.078
			c-0.164-0.126-0.195-0.362-0.068-0.526c0.598-0.775,1.237-1.556,1.9-2.322c0.136-0.156,0.373-0.173,0.529-0.038
			c0.156,0.136,0.173,0.373,0.038,0.529c-0.654,0.755-1.284,1.525-1.873,2.288C272.181,70.679,272.07,70.729,271.958,70.729z
			 M215.432,69.895c-0.133,0-0.262-0.071-0.33-0.195c-0.099-0.182-0.032-0.41,0.149-0.509c0.882-0.482,1.775-0.948,2.652-1.384
			c0.185-0.092,0.411-0.016,0.503,0.169c0.092,0.185,0.016,0.411-0.169,0.503c-0.869,0.432-1.753,0.893-2.626,1.371
			C215.554,69.88,215.493,69.895,215.432,69.895z M263.635,68.467c-0.06,0-0.12-0.014-0.176-0.044
			c-0.831-0.444-1.722-0.882-2.647-1.301c-0.189-0.086-0.272-0.308-0.187-0.497c0.086-0.189,0.308-0.273,0.497-0.187
			c0.94,0.426,1.846,0.872,2.691,1.323c0.183,0.097,0.252,0.325,0.154,0.507C263.898,68.395,263.769,68.467,263.635,68.467z
			 M220.759,67.247c-0.144,0-0.281-0.082-0.343-0.222c-0.085-0.189,0-0.411,0.189-0.496c0.922-0.412,1.849-0.802,2.757-1.16
			c0.192-0.075,0.41,0.019,0.487,0.212c0.076,0.193-0.019,0.411-0.212,0.487c-0.897,0.353-1.814,0.739-2.726,1.146
			C220.862,67.236,220.81,67.247,220.759,67.247z M275.853,66.223c-0.093,0-0.187-0.035-0.26-0.105
			c-0.149-0.143-0.154-0.381-0.011-0.531c0.685-0.713,1.401-1.423,2.128-2.109c0.151-0.142,0.388-0.135,0.531,0.015
			c0.142,0.151,0.135,0.388-0.015,0.531c-0.719,0.678-1.426,1.379-2.103,2.084C276.05,66.185,275.952,66.223,275.853,66.223z
			 M258.225,66c-0.046,0-0.092-0.008-0.137-0.026c-0.886-0.347-1.821-0.69-2.777-1.018c-0.196-0.067-0.3-0.281-0.233-0.477
			c0.067-0.196,0.281-0.299,0.477-0.233c0.967,0.331,1.912,0.677,2.808,1.029c0.193,0.075,0.288,0.293,0.212,0.486
			C258.516,65.91,258.374,66,258.225,66z M334.236,65.979c-0.117,0-0.233-0.055-0.306-0.159c-0.578-0.817-1.175-1.611-1.773-2.361
			c-0.13-0.162-0.103-0.398,0.059-0.527c0.163-0.129,0.398-0.102,0.528,0.059c0.607,0.761,1.214,1.567,1.8,2.396
			c0.119,0.169,0.08,0.403-0.089,0.523C334.387,65.957,334.311,65.979,334.236,65.979z M226.294,65.07
			c-0.156,0-0.302-0.099-0.355-0.255c-0.066-0.196,0.039-0.409,0.235-0.476c0.952-0.322,1.914-0.621,2.861-0.886
			c0.2-0.054,0.407,0.06,0.463,0.26c0.056,0.2-0.06,0.407-0.26,0.463c-0.934,0.262-1.883,0.556-2.823,0.875
			C226.374,65.064,226.333,65.07,226.294,65.07z M252.6,64.065c-0.036,0-0.072-0.005-0.108-0.016l-0.389-0.117
			c-0.811-0.241-1.639-0.456-2.46-0.639c-0.203-0.045-0.33-0.245-0.285-0.448c0.046-0.203,0.249-0.326,0.448-0.285
			c0.838,0.187,1.683,0.406,2.511,0.652l0.392,0.118c0.199,0.06,0.311,0.269,0.251,0.468C252.91,63.961,252.761,64.065,252.6,64.065
			z M232.02,63.468c-0.173,0-0.328-0.119-0.366-0.295c-0.044-0.202,0.084-0.402,0.286-0.447c0.982-0.215,1.973-0.401,2.946-0.552
			c0.207-0.03,0.396,0.108,0.428,0.313c0.032,0.205-0.108,0.396-0.313,0.428c-0.958,0.148-1.934,0.331-2.9,0.543
			C232.074,63.465,232.047,63.468,232.02,63.468z M246.798,62.773c-0.017,0-0.035-0.001-0.052-0.004
			c-0.963-0.134-1.949-0.233-2.931-0.292c-0.207-0.012-0.364-0.19-0.352-0.397c0.012-0.207,0.197-0.363,0.397-0.352
			c1.001,0.06,2.007,0.16,2.989,0.298c0.205,0.029,0.348,0.218,0.32,0.424C247.144,62.638,246.983,62.773,246.798,62.773z
			 M237.895,62.564c-0.193,0-0.357-0.147-0.373-0.343c-0.018-0.206,0.135-0.388,0.341-0.406c1.003-0.087,2.01-0.139,2.995-0.154
			c0.185,0.012,0.377,0.162,0.381,0.37c0.003,0.207-0.162,0.377-0.37,0.381c-0.967,0.015-1.956,0.065-2.942,0.151
			C237.916,62.563,237.905,62.564,237.895,62.564z M280.184,62.136c-0.105,0-0.211-0.045-0.285-0.131
			c-0.135-0.158-0.116-0.394,0.041-0.529c0.761-0.651,1.543-1.288,2.324-1.892c0.165-0.128,0.399-0.097,0.527,0.067
			c0.127,0.164,0.097,0.399-0.067,0.526c-0.771,0.597-1.543,1.225-2.295,1.869C280.357,62.106,280.271,62.136,280.184,62.136z
			 M330.519,61.34c-0.102,0-0.203-0.041-0.277-0.122c-0.67-0.734-1.364-1.44-2.064-2.099c-0.151-0.142-0.158-0.38-0.016-0.53
			c0.143-0.151,0.38-0.158,0.531-0.016c0.713,0.672,1.421,1.392,2.103,2.139c0.14,0.153,0.129,0.391-0.024,0.53
			C330.7,61.308,330.609,61.34,330.519,61.34z M284.895,58.493c-0.119,0-0.236-0.056-0.309-0.161
			c-0.118-0.17-0.076-0.404,0.094-0.522c0.826-0.574,1.669-1.127,2.504-1.642c0.177-0.109,0.407-0.055,0.516,0.122
			c0.109,0.176,0.054,0.407-0.122,0.516c-0.824,0.509-1.655,1.054-2.47,1.62C285.043,58.471,284.969,58.493,284.895,58.493z
			 M326.199,57.276c-0.082,0-0.165-0.027-0.234-0.082c-0.495-0.395-1.001-0.776-1.506-1.135c-0.288-0.205-0.578-0.405-0.868-0.598
			c-0.172-0.115-0.219-0.348-0.104-0.52c0.116-0.173,0.349-0.218,0.52-0.104c0.296,0.197,0.592,0.401,0.887,0.61
			c0.515,0.366,1.033,0.757,1.538,1.16c0.162,0.129,0.189,0.365,0.059,0.527C326.418,57.228,326.309,57.276,326.199,57.276z
			 M289.957,55.372c-0.133,0-0.263-0.071-0.331-0.197c-0.099-0.182-0.03-0.41,0.152-0.509c0.888-0.48,1.791-0.931,2.682-1.343
			c0.189-0.088,0.411-0.005,0.498,0.184c0.087,0.188,0.005,0.411-0.184,0.498c-0.878,0.405-1.766,0.85-2.64,1.322
			C290.078,55.357,290.017,55.372,289.957,55.372z M321.25,53.99c-0.061,0-0.122-0.014-0.178-0.045
			c-0.868-0.469-1.759-0.896-2.649-1.268c-0.191-0.08-0.281-0.3-0.201-0.491c0.08-0.191,0.298-0.281,0.491-0.202
			c0.912,0.382,1.826,0.82,2.715,1.3c0.182,0.099,0.251,0.326,0.152,0.509C321.513,53.919,321.384,53.99,321.25,53.99z
			 M295.361,52.883c-0.151,0-0.293-0.092-0.351-0.242c-0.074-0.193,0.023-0.41,0.217-0.484c0.946-0.36,1.903-0.685,2.845-0.965
			c0.201-0.057,0.407,0.055,0.467,0.253c0.059,0.199-0.054,0.408-0.253,0.467c-0.924,0.274-1.863,0.593-2.792,0.946
			C295.451,52.875,295.405,52.883,295.361,52.883z M315.77,51.701c-0.036,0-0.072-0.005-0.108-0.016
			c-0.934-0.281-1.893-0.516-2.851-0.697c-0.204-0.038-0.338-0.235-0.299-0.438c0.038-0.204,0.237-0.336,0.438-0.299
			c0.983,0.185,1.968,0.426,2.928,0.716c0.198,0.06,0.311,0.269,0.251,0.467C316.08,51.596,315.931,51.701,315.77,51.701z
			 M301.064,51.196c-0.174,0-0.33-0.121-0.367-0.298c-0.042-0.203,0.087-0.402,0.29-0.444c0.99-0.208,1.988-0.371,2.966-0.486
			c0.208-0.027,0.392,0.123,0.417,0.329s-0.123,0.392-0.329,0.417c-0.956,0.112-1.932,0.272-2.9,0.475
			C301.115,51.194,301.089,51.196,301.064,51.196z M309.934,50.598c-0.01,0-0.021,0-0.031-0.001
			c-0.781-0.063-1.585-0.108-2.367-0.094c-0.19,0-0.378,0.002-0.567,0.006c-0.003,0-0.006,0-0.008,0
			c-0.204,0-0.371-0.163-0.375-0.367c-0.004-0.207,0.16-0.379,0.367-0.383c0.208-0.004,0.407-0.006,0.627-0.006
			c0.794,0,1.597,0.032,2.383,0.096c0.207,0.017,0.361,0.198,0.344,0.405C310.291,50.449,310.127,50.598,309.934,50.598z"/>
		<path style="fill:#2E2427;" d="M384.886,123.488c-0.149,0-0.291-0.09-0.349-0.238c-0.076-0.193,0.018-0.41,0.211-0.487
			c0.452-0.178,0.912-0.368,1.377-0.568c0.189-0.081,0.41,0.006,0.492,0.196c0.082,0.191-0.006,0.411-0.196,0.493
			c-0.473,0.203-0.939,0.396-1.397,0.577C384.978,123.48,384.932,123.488,384.886,123.488z"/>
	</g>
	<g>
		<polygon style="fill:#87BECA;" points="386.505,101.974 393.75,109.012 388.487,120.95 395.846,118.921 396.309,126.802 
			424.369,106.191 		"/>
		<path style="fill:#2E2427;" d="M393.749,109.387c-0.193,0-0.356-0.148-0.373-0.343c-0.018-0.207,0.135-0.388,0.341-0.406
			l29.812-2.563c0.198-0.025,0.388,0.135,0.406,0.341c0.018,0.207-0.135,0.388-0.341,0.406l-29.812,2.563
			C393.771,109.386,393.76,109.387,393.749,109.387z"/>
		<path style="fill:#2E2427;" d="M388.487,121.326c-0.107,0-0.213-0.045-0.287-0.134c-0.133-0.159-0.113-0.395,0.046-0.529
			l7.911-6.651c0.158-0.132,0.396-0.113,0.528,0.046c0.133,0.159,0.113,0.395-0.046,0.529l-7.911,6.651
			C388.658,121.297,388.573,121.326,388.487,121.326z"/>
		<path style="fill:#2E2427;" d="M396.398,114.675c-0.163,0-0.313-0.107-0.361-0.271c-0.057-0.199,0.057-0.407,0.257-0.465
			l27.163-7.851c0.196-0.057,0.407,0.057,0.465,0.256c0.057,0.199-0.057,0.407-0.257,0.465l-27.163,7.851
			C396.468,114.67,396.433,114.675,396.398,114.675z"/>
		<path style="fill:#2E2427;" d="M395.847,119.296c-0.015,0-0.03-0.001-0.045-0.003c-0.206-0.025-0.352-0.211-0.328-0.417
			l0.553-4.621c0.025-0.206,0.217-0.349,0.417-0.328c0.206,0.025,0.352,0.211,0.328,0.417l-0.553,4.621
			C396.196,119.156,396.034,119.296,395.847,119.296z"/>
	</g>
	<g>
		<polygon style="fill:#E6B11B;" points="249.614,396.312 249.936,406.407 262.305,410.559 255.848,414.63 261.361,420.282 
			227.227,427.138 		"/>
		<path style="fill:#2E2427;" d="M227.946,427.089c-0.096-0.004-0.191-0.044-0.261-0.12c-0.14-0.152-0.131-0.39,0.021-0.53
			l21.976-20.307c0.151-0.14,0.389-0.132,0.53,0.021c0.14,0.152,0.131,0.389-0.021,0.53l-21.976,20.307
			C228.139,427.06,228.042,427.093,227.946,427.089z"/>
		<path style="fill:#2E2427;" d="M252.045,412.301c-0.179-0.007-0.333-0.142-0.357-0.325c-0.027-0.205,0.117-0.394,0.322-0.421
			l10.245-1.368c0.205-0.028,0.394,0.117,0.421,0.322c0.027,0.205-0.117,0.394-0.322,0.421l-10.245,1.368
			C252.088,412.301,252.067,412.302,252.045,412.301z"/>
		<path style="fill:#2E2427;" d="M227.946,427.089c-0.121-0.005-0.238-0.068-0.306-0.179c-0.108-0.177-0.053-0.408,0.124-0.516
			l24.1-14.788c0.177-0.108,0.408-0.053,0.516,0.124c0.108,0.177,0.053,0.408-0.124,0.516l-24.1,14.788
			C228.091,427.074,228.018,427.092,227.946,427.089z"/>
		<path style="fill:#2E2427;" d="M255.834,415.006c-0.071-0.003-0.141-0.025-0.203-0.069l-3.788-2.704
			c-0.169-0.121-0.208-0.355-0.088-0.523c0.121-0.169,0.356-0.207,0.523-0.088l3.788,2.704c0.169,0.121,0.208,0.355,0.088,0.523
			C256.078,414.956,255.956,415.01,255.834,415.006z"/>
	</g>
	<path style="fill:#2E2427;" d="M400.845,420.751c-0.265-0.011-0.53-0.025-0.795-0.044c-0.206-0.014-0.362-0.193-0.348-0.4
		c0.015-0.206,0.16-0.353,0.401-0.348c0.989,0.068,1.985,0.079,2.951,0.027c0.204-0.009,0.384,0.148,0.395,0.355
		c0.011,0.207-0.147,0.383-0.355,0.395C402.357,420.775,401.6,420.78,400.845,420.751z M397.088,420.333
		c-0.018-0.001-0.036-0.003-0.053-0.006c-0.967-0.175-1.963-0.406-2.958-0.685c-0.2-0.056-0.316-0.263-0.26-0.462
		c0.055-0.199,0.259-0.317,0.463-0.26c0.973,0.273,1.945,0.498,2.89,0.669c0.204,0.037,0.339,0.232,0.302,0.436
		C397.437,420.211,397.271,420.34,397.088,420.333z M406.037,420.376c-0.171-0.007-0.321-0.13-0.354-0.305
		c-0.038-0.203,0.095-0.4,0.299-0.438c0.963-0.183,1.923-0.433,2.851-0.745c0.195-0.067,0.409,0.041,0.475,0.236
		c0.066,0.197-0.04,0.409-0.237,0.475c-0.961,0.322-1.953,0.582-2.949,0.771C406.093,420.375,406.065,420.377,406.037,420.376z
		 M391.309,418.728c-0.038-0.001-0.077-0.009-0.115-0.023c-0.914-0.336-1.858-0.721-2.803-1.142c-0.19-0.084-0.274-0.306-0.19-0.495
		c0.084-0.189,0.306-0.275,0.495-0.19c0.931,0.415,1.858,0.792,2.757,1.123c0.195,0.072,0.294,0.287,0.223,0.482
		C391.618,418.639,391.467,418.734,391.309,418.728z M411.71,418.478c-0.133-0.005-0.26-0.082-0.323-0.21
		c-0.091-0.186-0.014-0.411,0.173-0.502c0.867-0.424,1.731-0.914,2.568-1.457c0.174-0.112,0.406-0.063,0.519,0.111
		c0.112,0.174,0.063,0.406-0.111,0.519c-0.862,0.559-1.753,1.064-2.647,1.502C411.832,418.468,411.77,418.48,411.71,418.478z
		 M385.822,416.298c-0.053-0.002-0.106-0.015-0.157-0.041c-0.864-0.444-1.757-0.928-2.654-1.44
		c-0.179-0.103-0.242-0.332-0.139-0.512c0.103-0.181,0.333-0.242,0.512-0.14c0.886,0.506,1.769,0.986,2.623,1.424
		c0.184,0.094,0.258,0.32,0.162,0.505C386.101,416.228,385.963,416.303,385.822,416.298z M416.742,415.233
		c-0.104-0.004-0.206-0.051-0.277-0.139c-0.13-0.161-0.106-0.397,0.056-0.528c0.746-0.605,1.49-1.268,2.213-1.973
		c0.149-0.145,0.385-0.141,0.531,0.007c0.145,0.149,0.141,0.386-0.007,0.531c-0.739,0.721-1.501,1.4-2.265,2.019
		C416.919,415.209,416.83,415.237,416.742,415.233z M339.797,412.186c-0.182-0.007-0.336-0.145-0.358-0.331
		c-0.024-0.206,0.124-0.392,0.329-0.416c0.871-0.101,1.774-0.45,2.611-1.009c0.17-0.114,0.403-0.07,0.52,0.104
		c0.115,0.172,0.068,0.406-0.104,0.52c-0.935,0.624-1.952,1.015-2.94,1.13C339.836,412.186,339.817,412.186,339.797,412.186z
		 M380.605,413.326c-0.063-0.002-0.126-0.021-0.183-0.056c-0.854-0.531-1.7-1.076-2.535-1.63c-0.173-0.115-0.22-0.348-0.105-0.52
		c0.114-0.173,0.348-0.219,0.52-0.105c0.829,0.55,1.669,1.091,2.516,1.618c0.176,0.109,0.23,0.341,0.121,0.517
		C380.864,413.267,380.735,413.331,380.605,413.326z M336.917,411.581c-0.064-0.002-0.128-0.021-0.186-0.057
		c-0.987-0.621-1.485-1.574-1.439-2.756l0.007-0.137c0.015-0.206,0.209-0.361,0.402-0.346c0.207,0.015,0.362,0.195,0.347,0.402
		l-0.006,0.11c-0.035,0.912,0.332,1.616,1.089,2.092c0.175,0.11,0.228,0.342,0.118,0.517
		C337.175,411.523,337.046,411.586,336.917,411.581z M269.859,406.651c-0.096-0.004-0.191-0.044-0.261-0.12
		c-0.141-0.152-0.131-0.39,0.021-0.53c0.008-0.008,0.836-0.77,2.292-1.995c0.158-0.132,0.396-0.112,0.529,0.046
		c0.133,0.159,0.113,0.395-0.046,0.529c-1.442,1.212-2.258,1.964-2.266,1.972C270.052,406.621,269.954,406.654,269.859,406.651z
		 M344.716,409.036c-0.073-0.003-0.144-0.026-0.206-0.072c-0.168-0.122-0.205-0.357-0.082-0.524c0.561-0.771,0.999-1.632,1.3-2.56
		c0.064-0.197,0.277-0.307,0.473-0.241c0.198,0.064,0.305,0.276,0.241,0.473c-0.326,1.003-0.8,1.934-1.408,2.769
		C344.957,408.987,344.836,409.041,344.716,409.036z M375.597,410.012c-0.07-0.003-0.139-0.024-0.2-0.067
		c-0.831-0.578-1.649-1.161-2.453-1.742c-0.168-0.121-0.206-0.356-0.085-0.524c0.121-0.169,0.356-0.205,0.523-0.085
		c0.802,0.579,1.617,1.159,2.443,1.735c0.17,0.118,0.212,0.352,0.094,0.522C375.843,409.96,375.72,410.017,375.597,410.012z
		 M421.043,411.058c-0.083-0.003-0.166-0.034-0.233-0.093c-0.155-0.137-0.171-0.374-0.035-0.529
		c0.634-0.723,1.268-1.497,1.884-2.302c0.125-0.165,0.361-0.195,0.526-0.07c0.165,0.126,0.196,0.361,0.07,0.526
		c-0.626,0.819-1.27,1.607-1.915,2.342C421.261,411.019,421.152,411.062,421.043,411.058z M336.701,406.25
		c-0.064-0.002-0.128-0.021-0.186-0.057c-0.175-0.11-0.228-0.342-0.118-0.517c0.505-0.802,1.16-1.605,1.95-2.388
		c0.148-0.145,0.385-0.145,0.53,0.002c0.146,0.147,0.145,0.385-0.002,0.531c-0.749,0.742-1.368,1.501-1.842,2.255
		C336.959,406.193,336.831,406.255,336.701,406.25z M370.723,406.503c-0.073-0.003-0.146-0.026-0.208-0.073l-2.415-1.786
		c-0.167-0.123-0.202-0.358-0.079-0.525c0.125-0.167,0.36-0.2,0.524-0.078l2.415,1.785c0.167,0.123,0.202,0.358,0.08,0.524
		C370.963,406.455,370.842,406.508,370.723,406.503z M274.465,402.76c-0.105-0.004-0.208-0.052-0.278-0.141
		c-0.129-0.162-0.103-0.398,0.058-0.527c0.72-0.577,1.516-1.199,2.378-1.857c0.166-0.125,0.401-0.093,0.526,0.071
		c0.126,0.165,0.094,0.4-0.071,0.526c-0.857,0.653-1.647,1.273-2.364,1.846C274.641,402.736,274.552,402.763,274.465,402.76z
		 M346.559,403.422c-0.204-0.008-0.364-0.177-0.361-0.382c0.017-0.943-0.098-1.909-0.34-2.872c-0.051-0.201,0.071-0.405,0.272-0.456
		c0.203-0.051,0.405,0.072,0.455,0.272c0.258,1.027,0.38,2.06,0.363,3.069c-0.004,0.207-0.175,0.372-0.382,0.368
		C346.564,403.422,346.561,403.422,346.559,403.422z M424.696,406.301c-0.068-0.003-0.135-0.024-0.196-0.064
		c-0.172-0.116-0.216-0.35-0.1-0.521l0.19-0.281c0.484-0.723,0.956-1.474,1.402-2.23c0.106-0.179,0.334-0.238,0.514-0.133
		c0.179,0.105,0.238,0.335,0.133,0.514c-0.453,0.769-0.932,1.532-1.427,2.269l-0.191,0.282
		C424.945,406.248,424.82,406.306,424.696,406.301z M340.893,402c-0.111-0.004-0.221-0.058-0.291-0.156
		c-0.12-0.169-0.081-0.403,0.087-0.524c0.818-0.585,1.693-1.122,2.603-1.596c0.181-0.096,0.409-0.026,0.507,0.159
		c0.096,0.184,0.024,0.41-0.16,0.506c-0.878,0.458-1.724,0.976-2.512,1.541C341.055,401.98,340.974,402.003,340.893,402z
		 M365.889,402.938c-0.072-0.003-0.144-0.026-0.206-0.071c-0.6-0.437-1.187-0.86-1.763-1.267c-0.223-0.159-0.448-0.311-0.672-0.457
		c-0.174-0.113-0.223-0.346-0.109-0.519c0.113-0.174,0.346-0.222,0.519-0.109c0.233,0.152,0.465,0.31,0.697,0.474
		c0.577,0.409,1.167,0.834,1.77,1.272c0.168,0.122,0.205,0.357,0.082,0.524C366.13,402.889,366.01,402.943,365.889,402.938z
		 M279.248,399.111c-0.111-0.004-0.219-0.058-0.289-0.154c-0.122-0.167-0.085-0.402,0.083-0.524
		c0.782-0.569,1.602-1.153,2.458-1.747c0.171-0.118,0.404-0.076,0.522,0.095c0.118,0.17,0.076,0.404-0.095,0.522
		c-0.851,0.591-1.667,1.172-2.444,1.737C279.412,399.091,279.329,399.114,279.248,399.111z M346.2,399.229
		c-0.149-0.006-0.286-0.1-0.339-0.249c-0.069-0.195,0.032-0.41,0.227-0.479c0.964-0.345,1.954-0.621,2.94-0.822
		c0.202-0.041,0.401,0.09,0.442,0.293c0.041,0.203-0.09,0.401-0.293,0.443c-0.951,0.194-1.905,0.46-2.836,0.793
		C346.294,399.224,346.247,399.231,346.2,399.229z M360.816,399.749c-0.048-0.002-0.096-0.013-0.142-0.034
		c-0.896-0.413-1.824-0.756-2.757-1.017c-0.2-0.056-0.316-0.263-0.26-0.463c0.056-0.199,0.26-0.316,0.462-0.26
		c0.971,0.272,1.936,0.629,2.868,1.058c0.188,0.087,0.27,0.31,0.184,0.498C361.105,399.673,360.963,399.755,360.816,399.749z
		 M284.19,395.685c-0.117-0.004-0.23-0.064-0.299-0.168c-0.114-0.173-0.066-0.406,0.107-0.52c0.822-0.541,1.669-1.085,2.539-1.628
		c0.176-0.111,0.407-0.056,0.517,0.12c0.11,0.176,0.056,0.407-0.12,0.517c-0.865,0.539-1.706,1.08-2.523,1.618
		C284.342,395.668,284.265,395.688,284.19,395.685z M427.738,401.141c-0.053-0.002-0.105-0.015-0.155-0.04
		c-0.185-0.094-0.258-0.319-0.165-0.504c0.442-0.873,0.867-1.779,1.263-2.694c0.081-0.191,0.303-0.278,0.493-0.196
		c0.19,0.082,0.278,0.303,0.195,0.493c-0.402,0.929-0.833,1.849-1.282,2.735C428.019,401.07,427.88,401.146,427.738,401.141z
		 M352.063,398.047c-0.192-0.007-0.35-0.161-0.36-0.357c-0.01-0.207,0.15-0.383,0.356-0.393c1.026-0.05,2.061-0.018,3.056,0.094
		c0.206,0.023,0.354,0.209,0.332,0.415c-0.023,0.206-0.228,0.352-0.415,0.331c-0.981-0.11-1.955-0.138-2.936-0.09
		C352.085,398.047,352.074,398.047,352.063,398.047z M345.153,397.649c-0.132-0.005-0.257-0.08-0.321-0.207
		c-0.417-0.833-0.937-1.672-1.544-2.492c-0.123-0.166-0.088-0.401,0.079-0.525c0.165-0.122,0.4-0.088,0.525,0.079
		c0.632,0.855,1.174,1.73,1.611,2.602c0.093,0.185,0.018,0.411-0.168,0.504C345.277,397.639,345.214,397.652,345.153,397.649z
		 M289.292,392.506c-0.124-0.005-0.242-0.071-0.31-0.185c-0.105-0.179-0.045-0.409,0.134-0.514c0.857-0.503,1.732-1.001,2.623-1.49
		c0.182-0.1,0.41-0.033,0.509,0.148c0.1,0.182,0.033,0.41-0.148,0.509c-0.884,0.486-1.753,0.98-2.604,1.479
		C289.432,392.492,289.361,392.508,289.292,392.506z M341.629,392.821c-0.093-0.004-0.185-0.042-0.255-0.114
		c-0.656-0.676-1.387-1.353-2.173-2.009c-0.159-0.133-0.18-0.37-0.047-0.529c0.134-0.159,0.371-0.179,0.528-0.047
		c0.806,0.673,1.556,1.367,2.231,2.063c0.144,0.149,0.141,0.386-0.009,0.53C341.828,392.79,341.728,392.825,341.629,392.821z
		 M430.124,395.642c-0.038-0.001-0.077-0.009-0.115-0.023c-0.195-0.072-0.294-0.287-0.223-0.482
		c0.339-0.922,0.661-1.874,0.956-2.828c0.062-0.198,0.275-0.308,0.469-0.247c0.199,0.061,0.309,0.272,0.248,0.469
		c-0.3,0.967-0.626,1.931-0.969,2.865C430.433,395.553,430.282,395.648,430.124,395.642z M294.563,389.617
		c-0.131-0.005-0.257-0.079-0.32-0.205c-0.094-0.185-0.02-0.411,0.164-0.504c0.905-0.46,1.818-0.905,2.713-1.322
		c0.188-0.088,0.411-0.006,0.499,0.182c0.087,0.188,0.006,0.411-0.182,0.499c-0.887,0.414-1.792,0.855-2.69,1.311
		C294.688,389.607,294.625,389.62,294.563,389.617z M337.044,388.964c-0.07-0.003-0.14-0.025-0.201-0.068
		c-0.777-0.547-1.615-1.093-2.492-1.625c-0.178-0.107-0.234-0.338-0.127-0.515c0.108-0.178,0.34-0.233,0.515-0.126
		c0.891,0.54,1.744,1.096,2.535,1.652c0.17,0.119,0.21,0.354,0.091,0.523C337.29,388.913,337.167,388.969,337.044,388.964z
		 M300.009,387.085c-0.141-0.005-0.274-0.091-0.332-0.23c-0.08-0.191,0.01-0.411,0.201-0.491c0.941-0.395,1.887-0.769,2.81-1.112
		c0.195-0.071,0.41,0.027,0.482,0.221c0.072,0.195-0.027,0.41-0.221,0.482c-0.914,0.338-1.849,0.709-2.781,1.1
		C300.116,387.077,300.061,387.087,300.009,387.085z M431.91,389.906c-0.026-0.001-0.053-0.005-0.08-0.012
		c-0.2-0.052-0.321-0.257-0.268-0.457c0.246-0.948,0.479-1.926,0.691-2.908c0.044-0.203,0.249-0.332,0.446-0.287
		c0.202,0.044,0.331,0.243,0.287,0.446c-0.214,0.992-0.45,1.98-0.698,2.938C432.242,389.8,432.083,389.913,431.91,389.906z
		 M305.649,384.999c-0.154-0.006-0.294-0.107-0.343-0.261c-0.063-0.198,0.047-0.409,0.244-0.471c0.972-0.309,1.95-0.59,2.905-0.838
		c0.199-0.05,0.405,0.068,0.457,0.269c0.052,0.201-0.068,0.405-0.269,0.458c-0.942,0.244-1.906,0.522-2.866,0.826
		C305.734,384.996,305.691,385.001,305.649,384.999z M331.759,385.802c-0.908-0.482-1.791-0.886-2.686-1.234
		c-0.194-0.075-0.289-0.293-0.214-0.486s0.296-0.286,0.486-0.213c0.922,0.359,1.831,0.776,2.703,1.238l-0.113,0.365L331.759,385.802
		z M311.462,383.504c-0.171-0.007-0.32-0.129-0.354-0.303c-0.04-0.204,0.093-0.4,0.296-0.44c1.009-0.196,2.014-0.356,2.989-0.476
		c0.203-0.026,0.393,0.12,0.418,0.327c0.026,0.206-0.121,0.393-0.326,0.418c-0.958,0.117-1.947,0.275-2.938,0.467
		C311.519,383.503,311.489,383.505,311.462,383.504z M326.342,383.669c-0.026-0.001-0.053-0.005-0.08-0.012
		c-0.939-0.246-1.915-0.444-2.9-0.589c-0.205-0.03-0.346-0.221-0.317-0.426c0.03-0.205,0.222-0.345,0.426-0.317
		c1.013,0.149,2.016,0.353,2.981,0.605c0.201,0.052,0.321,0.258,0.268,0.458C326.674,383.562,326.514,383.675,326.342,383.669z
		 M317.414,382.782c-0.193-0.007-0.351-0.162-0.359-0.359c-0.009-0.207,0.152-0.382,0.358-0.391c0.937-0.04,1.871-0.043,2.775-0.008
		l0.258,0.011c0.207,0.01,0.367,0.185,0.357,0.393c-0.009,0.206-0.183,0.365-0.389,0.357c-0.001,0-0.002,0-0.002,0l-0.253-0.011
		c-0.885-0.034-1.798-0.031-2.714,0.008C317.435,382.783,317.424,382.783,317.414,382.782z M433.188,384.034
		c-0.018-0.001-0.035-0.002-0.053-0.006c-0.204-0.036-0.339-0.232-0.303-0.436c0.177-0.984,0.337-1.971,0.482-2.957
		c0.03-0.205,0.222-0.346,0.426-0.317c0.205,0.03,0.346,0.221,0.317,0.426c-0.147,0.995-0.308,1.988-0.486,2.981
		C433.538,383.912,433.372,384.042,433.188,384.034z M434.073,378.081c-0.011,0-0.021-0.001-0.031-0.002
		c-0.206-0.025-0.353-0.212-0.327-0.418c0.12-0.994,0.23-1.987,0.33-2.978c0.021-0.206,0.187-0.357,0.411-0.335
		c0.206,0.021,0.357,0.205,0.335,0.411c-0.101,0.996-0.21,1.994-0.332,2.993C434.436,377.947,434.266,378.089,434.073,378.081z
		 M434.681,372.105c-0.006,0-0.012,0-0.018-0.001c-0.206-0.017-0.36-0.199-0.342-0.406c0.085-1.001,0.164-1.999,0.239-2.991
		c0.016-0.206,0.201-0.378,0.403-0.346c0.207,0.016,0.361,0.196,0.346,0.402c-0.076,0.994-0.155,1.995-0.241,2.998
		C435.053,371.962,434.88,372.112,434.681,372.105z M435.14,366.114c-0.004,0-0.008,0-0.012-0.001
		c-0.206-0.015-0.362-0.194-0.348-0.401l0.214-2.997c0.015-0.206,0.203-0.372,0.401-0.347c0.207,0.015,0.362,0.195,0.348,0.401
		l-0.214,2.996C435.515,365.968,435.341,366.122,435.14,366.114z M435.58,360.121c-0.005,0-0.01,0-0.015-0.001
		c-0.207-0.016-0.361-0.197-0.345-0.404c0.081-1.011,0.168-2.011,0.262-2.999c0.02-0.206,0.192-0.353,0.409-0.338
		c0.206,0.02,0.357,0.203,0.338,0.409c-0.094,0.984-0.18,1.98-0.26,2.987C435.952,359.978,435.78,360.129,435.58,360.121z
		 M436.159,354.142c-0.01,0-0.021-0.001-0.031-0.002c-0.206-0.025-0.353-0.211-0.328-0.417c0.12-1.013,0.254-2.01,0.403-2.988
		c0.031-0.205,0.227-0.35,0.428-0.314c0.205,0.031,0.346,0.223,0.314,0.428c-0.149,0.971-0.281,1.959-0.401,2.963
		C436.522,354.007,436.353,354.15,436.159,354.142z M437.08,348.21c-0.02-0.001-0.04-0.003-0.06-0.007
		c-0.203-0.041-0.335-0.238-0.295-0.441c0.206-1.026,0.434-2.017,0.679-2.946c0.053-0.2,0.257-0.322,0.458-0.267
		c0.2,0.053,0.32,0.258,0.268,0.458c-0.241,0.914-0.467,1.891-0.668,2.901C437.425,348.092,437.261,348.217,437.08,348.21z
		 M438.625,342.42c-0.037-0.001-0.073-0.008-0.109-0.021c-0.196-0.068-0.299-0.282-0.23-0.478c0.344-0.984,0.726-1.929,1.136-2.809
		c0.087-0.188,0.31-0.27,0.498-0.182c0.188,0.088,0.27,0.311,0.182,0.498c-0.399,0.858-0.772,1.78-1.108,2.74
		C438.938,342.328,438.786,342.426,438.625,342.42z M441.166,337.014c-0.063-0.002-0.126-0.021-0.183-0.056
		c-0.176-0.109-0.23-0.341-0.121-0.517c0.543-0.873,1.14-1.701,1.775-2.46c0.134-0.159,0.371-0.179,0.528-0.047
		c0.159,0.133,0.18,0.369,0.047,0.528c-0.612,0.733-1.188,1.532-1.713,2.375C441.425,336.955,441.295,337.019,441.166,337.014z
		 M444.983,332.457c-0.099-0.004-0.195-0.046-0.267-0.126c-0.137-0.155-0.123-0.392,0.032-0.53c0.75-0.666,1.562-1.285,2.413-1.84
		c0.173-0.112,0.405-0.065,0.519,0.109c0.113,0.174,0.064,0.406-0.109,0.519c-0.821,0.535-1.603,1.131-2.326,1.772
		C445.171,332.429,445.076,332.46,444.983,332.457z M449.953,329.195c-0.135-0.005-0.262-0.083-0.324-0.213
		c-0.09-0.187-0.01-0.411,0.177-0.5c0.882-0.42,1.826-0.803,2.805-1.138c0.195-0.067,0.409,0.038,0.477,0.233
		c0.067,0.196-0.038,0.41-0.234,0.476c-0.951,0.326-1.868,0.698-2.725,1.106C450.072,329.185,450.012,329.197,449.953,329.195z
		 M455.586,327.247c-0.164-0.006-0.311-0.121-0.35-0.288c-0.048-0.202,0.076-0.404,0.278-0.452c0.943-0.224,1.942-0.419,2.97-0.578
		c0.2-0.033,0.396,0.108,0.429,0.313c0.032,0.205-0.108,0.397-0.314,0.428c-1.008,0.157-1.988,0.347-2.912,0.567
		C455.653,327.246,455.619,327.249,455.586,327.247z"/>
	<path style="fill:#2E2427;" d="M197.509,208.59c-0.098,0-0.196-0.038-0.27-0.114c-9.502-9.828-8.869-26.958-8.861-27.13
		c0.009-0.207,0.177-0.365,0.391-0.358c0.207,0.009,0.368,0.184,0.358,0.391c-0.007,0.169-0.625,16.982,8.651,26.575
		c0.144,0.149,0.14,0.387-0.009,0.531C197.697,208.555,197.603,208.59,197.509,208.59z"/>
	<path style="fill:#2E2427;" d="M190.414,205.767c-0.075,0-0.151-0.022-0.216-0.069c-5.426-3.839-4.694-13.52-4.66-13.931
		c0.018-0.206,0.196-0.36,0.405-0.343c0.206,0.017,0.36,0.198,0.343,0.405c-0.008,0.096-0.73,9.666,4.345,13.257
		c0.169,0.12,0.21,0.354,0.09,0.523C190.647,205.712,190.532,205.767,190.414,205.767z"/>
	<path style="fill:#2E2427;" d="M527.668,56.238c0.059-0.079,0.148-0.134,0.253-0.148c13.56-1.735,26.907,9.022,27.04,9.13
		c0.16,0.131,0.187,0.36,0.053,0.528c-0.131,0.16-0.368,0.184-0.528,0.053c-0.131-0.107-13.234-10.661-26.47-8.967
		c-0.206,0.026-0.393-0.119-0.42-0.324C527.584,56.41,527.612,56.313,527.668,56.238z"/>
	<path style="fill:#2E2427;" d="M534.175,52.242c0.045-0.06,0.108-0.107,0.185-0.132c6.323-2.052,13.642,4.327,13.951,4.6
		c0.155,0.138,0.171,0.373,0.033,0.53c-0.137,0.155-0.374,0.17-0.53,0.033c-0.072-0.064-7.308-6.368-13.222-4.449
		c-0.197,0.064-0.409-0.044-0.473-0.241C534.08,52.463,534.105,52.337,534.175,52.242z"/>
	<path style="fill:#2E2427;" d="M543.948,370.48c0.034,0.092,0.032,0.197-0.014,0.293c-5.923,12.321-22.21,17.666-22.374,17.718
		c-0.197,0.063-0.404-0.039-0.472-0.243c-0.063-0.197,0.045-0.409,0.243-0.472c0.161-0.052,16.145-5.302,21.927-17.328
		c0.09-0.187,0.314-0.265,0.501-0.176C543.85,370.316,543.916,370.392,543.948,370.48z"/>
	<path style="fill:#2E2427;" d="M543.76,378.114c0.026,0.07,0.031,0.149,0.01,0.227c-1.719,6.421-11.054,9.091-11.451,9.202
		c-0.2,0.055-0.406-0.059-0.462-0.261c-0.056-0.199,0.061-0.406,0.26-0.462c0.093-0.026,9.319-2.667,10.927-8.672
		c0.054-0.2,0.259-0.319,0.459-0.266C543.627,377.914,543.719,378.003,543.76,378.114z"/>
	<path style="fill:#2E2427;" d="M199.526,397.844c-9.795,0-17.508-6.414-17.598-6.49c-0.158-0.134-0.178-0.37-0.044-0.529
		c0.134-0.158,0.371-0.178,0.529-0.044c0.103,0.087,10.372,8.62,22.107,5.71c0.199-0.05,0.404,0.072,0.454,0.274
		c0.05,0.201-0.073,0.405-0.274,0.454C202.933,397.657,201.199,397.844,199.526,397.844z"/>
	<path style="fill:#2E2427;" d="M195.272,402.303c-4.493,0-8.265-3.465-8.461-3.648c-0.151-0.141-0.159-0.379-0.018-0.53
		c0.141-0.152,0.378-0.16,0.53-0.019c0.056,0.052,5.647,5.179,10.994,2.804c0.19-0.085,0.411,0.001,0.495,0.191
		c0.084,0.189-0.001,0.411-0.191,0.495C197.491,402.1,196.36,402.303,195.272,402.303z"/>
	<path style="fill:#2E2427;" d="M494.578,305.159c-6.342-7.464-6.449-17.495-6.449-17.613c-0.001-0.207,0.167-0.376,0.374-0.376
		c0.207,0,0.376,0.167,0.376,0.374c0,0.135,0.148,13.486,9.963,20.544c0.167,0.119,0.207,0.355,0.085,0.524
		c-0.121,0.168-0.355,0.206-0.524,0.085C496.926,307.634,495.661,306.434,494.578,305.159z"/>
	<path style="fill:#2E2427;" d="M488.426,304.805c-2.909-3.424-2.711-8.542-2.699-8.809c0.01-0.207,0.185-0.367,0.392-0.357
		c0.207,0.01,0.367,0.185,0.358,0.392c-0.004,0.076-0.29,7.657,4.982,10.194c0.188,0.09,0.265,0.314,0.175,0.501
		c-0.09,0.186-0.314,0.265-0.501,0.175C490.017,306.364,489.13,305.634,488.426,304.805z"/>
	<path style="fill:#2E2427;" d="M494.787,196.296c-5.503-8.103-4.531-18.087-4.519-18.204c0.022-0.206,0.206-0.355,0.412-0.334
		c0.206,0.022,0.356,0.207,0.334,0.412c-0.014,0.134-1.303,13.423,7.697,21.495c0.153,0.136,0.167,0.375,0.029,0.53
		c-0.138,0.154-0.376,0.167-0.53,0.029C496.856,199.01,495.727,197.68,494.787,196.296z"/>
	<path style="fill:#2E2427;" d="M488.709,195.283c-2.524-3.716-1.778-8.784-1.736-9.048c0.032-0.205,0.224-0.345,0.428-0.313
		c0.205,0.032,0.345,0.223,0.313,0.428c-0.012,0.076-1.112,7.581,3.857,10.671c0.177,0.11,0.23,0.341,0.12,0.517
		c-0.109,0.176-0.341,0.23-0.517,0.121C490.123,197.004,489.32,196.183,488.709,195.283z"/>
</g>
<g id="DESIGNED_BY_FREEPIK_1_">
	<g>
		<g id="XMLID_319_">
			<g id="XMLID_338_">
				<path id="XMLID_346_" style="fill:#1C262D;" d="M385.104,465.465c-0.432,0.443-0.803,0.932-1.107,1.453l-0.465-0.24
					c-0.068-0.297-0.35-0.502-0.66-0.467c-0.33,0.039-0.566,0.34-0.529,0.67c0.039,0.332,0.34,0.568,0.67,0.529
					c0.066-0.008,0.127-0.025,0.184-0.053l0.451,0.234c-0.25,0.555-0.432,1.139-0.539,1.744l0.748,0.131
					c0.229-1.305,0.85-2.506,1.791-3.473L385.104,465.465z"/>
				<path id="XMLID_345_" style="fill:#1C262D;" d="M390.592,463.164c-0.172,0-0.342,0.006-0.51,0.016l-0.074-0.625
					c0.188-0.15,0.297-0.389,0.266-0.645c-0.045-0.393-0.402-0.674-0.795-0.629c-0.393,0.047-0.674,0.402-0.627,0.797
					c0.029,0.254,0.189,0.461,0.404,0.563l0.072,0.625c-0.713,0.115-1.402,0.332-2.059,0.645l0.326,0.686
					c0.935-0.447,1.941-0.674,2.996-0.674c0.496,0,0.992,0.053,1.475,0.158l0.16-0.742
					C391.691,463.223,391.143,463.164,390.592,463.164z"/>
				<path id="XMLID_344_" style="fill:#1C262D;" d="M397.193,465.711c0.332-0.041,0.566-0.342,0.525-0.672
					c-0.039-0.332-0.34-0.566-0.672-0.525c-0.309,0.037-0.535,0.303-0.529,0.607l-0.416,0.363c-0.418-0.43-0.891-0.813-1.408-1.139
					l-0.404,0.641c1.135,0.715,2.021,1.727,2.564,2.926l0.689-0.313c-0.25-0.555-0.566-1.072-0.941-1.545l0.402-0.352
					C397.064,465.715,397.129,465.719,397.193,465.711z"/>
				<path id="XMLID_343_" style="fill:#1C262D;" d="M390.045,473.371c-0.387,0.023-0.775,0.035-1.158,0.035
					c-0.879,0-1.732-0.061-2.478-0.18c-0.391-0.061-0.846-0.154-1.27-0.291c1.047,1.861,3.068,3.125,5.389,3.125
					c2.855,0,5.262-1.916,5.949-4.504c-0.682,0.449-1.506,0.826-2.459,1.123C392.838,473.047,391.463,473.287,390.045,473.371z"/>
				<path id="XMLID_339_" style="fill:#1C262D;" d="M390.592,464.68c-3.352,0-6.08,2.666-6.08,5.943c0,0.426,0.047,0.85,0.137,1.262
					c0.674,0.482,2.707,0.891,5.348,0.73c2.881-0.174,5.297-0.957,6.672-2.158c-0.004-0.195-0.02-0.391-0.045-0.582
					C396.244,466.914,393.65,464.68,390.592,464.68z M388.432,471.195c-1.02,0-1.85-0.83-1.85-1.85c0-1.022,0.83-1.852,1.85-1.852
					c1.02,0,1.85,0.83,1.85,1.852C390.281,470.365,389.451,471.195,388.432,471.195z M393.17,470.287
					c-0.75,0-1.361-0.611-1.361-1.361s0.611-1.359,1.361-1.359s1.359,0.609,1.359,1.359S393.92,470.287,393.17,470.287z"/>
			</g>
			<path id="XMLID_336_" style="fill:#1C262D;" d="M406.596,466.547c-0.295-0.115-0.807-0.309-1.383-0.238
				c-0.551,0.07-0.844,0.342-0.844,1.008v0.865h2.228v1.717h-2.228v5.455h-1.932v-5.455h-1.34v-1.717h1.34v-0.889
				c0-1.68,0.895-2.781,2.568-2.781c0.643,0,1.156,0.121,1.59,0.307V466.547z"/>
			<path id="XMLID_334_" style="fill:#1C262D;" d="M411.297,469.879c-0.176-0.029-0.358-0.047-0.525-0.047
				c-0.895,0-1.51,0.549-1.51,1.613v3.908h-1.932v-7.172h1.873v0.785c0.451-0.674,1.139-0.977,2.02-0.977
				c0.414,0,0.848,0.127,1.096,0.336L411.297,469.879z"/>
			<path id="XMLID_331_" style="fill:#1C262D;" d="M418.965,471.758c0,0.221-0.016,0.488-0.037,0.65h-5.084
				c0.207,1.037,0.932,1.488,1.842,1.488c0.623,0,1.295-0.252,1.815-0.689l1.133,1.244c-0.814,0.748-1.852,1.088-3.057,1.088
				c-2.199,0-3.725-1.496-3.725-3.752c0-2.258,1.48-3.797,3.627-3.797C417.543,467.99,418.957,469.521,418.965,471.758z
				 M413.852,471.092h3.174c-0.178-0.918-0.732-1.438-1.561-1.438C414.555,469.654,414.022,470.203,413.852,471.092z"/>
			<path id="XMLID_328_" style="fill:#1C262D;" d="M426.619,471.758c0,0.221-0.016,0.488-0.037,0.65h-5.086
				c0.207,1.037,0.934,1.488,1.844,1.488c0.621,0,1.295-0.252,1.813-0.689l1.133,1.244c-0.814,0.748-1.85,1.088-3.057,1.088
				c-2.199,0-3.723-1.496-3.723-3.752c0-2.258,1.48-3.797,3.627-3.797C425.197,467.99,426.611,469.521,426.619,471.758z
				 M421.504,471.092h3.176c-0.178-0.918-0.734-1.438-1.563-1.438C422.207,469.654,421.674,470.203,421.504,471.092z"/>
			<path id="XMLID_325_" style="fill:#1C262D;" d="M434.965,471.764c0,2.154-1.496,3.775-3.473,3.775
				c-0.961,0-1.643-0.377-2.109-0.932v3.707h-1.924v-10.133h1.887v0.793c0.467-0.586,1.154-0.984,2.139-0.984
				C433.469,467.99,434.965,469.611,434.965,471.764z M429.287,471.764c0,1.133,0.748,1.977,1.844,1.977
				c1.139,0,1.85-0.881,1.85-1.977c0-1.094-0.711-1.975-1.85-1.975C430.035,469.789,429.287,470.633,429.287,471.764z"/>
			<path id="XMLID_322_" style="fill:#1C262D;" d="M438.068,465.836c0,0.695-0.541,1.229-1.236,1.229
				c-0.697,0-1.229-0.533-1.229-1.229c0-0.695,0.531-1.244,1.229-1.244C437.527,464.592,438.068,465.141,438.068,465.836z
				 M437.809,475.353h-1.932v-7.172h1.932V475.353z"/>
			<path id="XMLID_320_" style="fill:#1C262D;" d="M441.031,470.736l2.703-2.555h2.367l-3.479,3.375l3.502,3.797h-2.377l-2.717-2.9
				v2.9H439.1v-10.658h1.932V470.736z"/>
		</g>
		<g>
			<path style="fill:#1C262D;" d="M309.412,475.289v-1.055c-0.527,0.719-1.391,1.23-2.387,1.23c-1.846,0-3.149-1.406-3.149-3.705
				c0-2.256,1.289-3.721,3.149-3.721c0.952,0,1.816,0.469,2.387,1.244v-3.764h1.099v9.77H309.412z M309.412,473.371v-3.209
				c-0.395-0.615-1.245-1.143-2.124-1.143c-1.42,0-2.27,1.172-2.27,2.74c0,1.566,0.85,2.725,2.27,2.725
				C308.168,474.484,309.017,473.986,309.412,473.371z"/>
			<path style="fill:#1C262D;" d="M311.932,471.744c0-2.051,1.465-3.705,3.486-3.705c2.139,0,3.398,1.67,3.398,3.793v0.279h-5.727
				c0.088,1.332,1.025,2.445,2.549,2.445c0.806,0,1.626-0.322,2.182-0.893l0.527,0.717c-0.703,0.703-1.655,1.084-2.812,1.084
				C313.44,475.465,311.932,473.957,311.932,471.744z M315.403,468.947c-1.509,0-2.256,1.273-2.314,2.357h4.643
				C317.718,470.25,317.015,468.947,315.403,468.947z"/>
			<path style="fill:#1C262D;" d="M319.607,474.352l0.571-0.791c0.469,0.543,1.362,1.012,2.329,1.012c1.085,0,1.67-0.514,1.67-1.217
				c0-1.713-4.38-0.658-4.38-3.281c0-1.098,0.952-2.035,2.636-2.035c1.202,0,2.051,0.453,2.622,1.025l-0.513,0.762
				c-0.424-0.514-1.201-0.895-2.109-0.895c-0.966,0-1.567,0.484-1.567,1.113c0,1.553,4.379,0.527,4.379,3.281
				c0,1.188-0.952,2.139-2.783,2.139C321.306,475.465,320.325,475.113,319.607,474.352z"/>
			<path style="fill:#1C262D;" d="M326.477,466.471c0-0.41,0.337-0.746,0.732-0.746c0.41,0,0.747,0.336,0.747,0.746
				c0,0.41-0.337,0.732-0.747,0.732C326.814,467.203,326.477,466.881,326.477,466.471z M326.667,475.289v-7.074h1.099v7.074H326.667
				z"/>
			<path style="fill:#1C262D;" d="M329.582,477.105l0.556-0.82c0.586,0.703,1.289,0.967,2.3,0.967c1.172,0,2.271-0.57,2.271-2.123
				v-1.012c-0.513,0.719-1.377,1.26-2.373,1.26c-1.846,0-3.149-1.377-3.149-3.662c0-2.27,1.289-3.676,3.149-3.676
				c0.952,0,1.802,0.469,2.373,1.244v-1.068h1.099v6.869c0,2.344-1.641,3.076-3.369,3.076
				C331.237,478.16,330.417,477.926,329.582,477.105z M334.708,473.254v-3.092c-0.381-0.615-1.23-1.143-2.109-1.143
				c-1.421,0-2.27,1.129-2.27,2.695c0,1.553,0.849,2.695,2.27,2.695C333.478,474.41,334.328,473.869,334.708,473.254z"/>
			<path style="fill:#1C262D;" d="M342.413,475.289v-4.629c0-1.244-0.63-1.641-1.582-1.641c-0.864,0-1.684,0.527-2.094,1.1v5.17
				h-1.099v-7.074h1.099v1.025c0.498-0.586,1.464-1.201,2.519-1.201c1.479,0,2.256,0.746,2.256,2.285v4.965H342.413z"/>
			<path style="fill:#1C262D;" d="M344.932,471.744c0-2.051,1.465-3.705,3.486-3.705c2.139,0,3.398,1.67,3.398,3.793v0.279h-5.727
				c0.088,1.332,1.025,2.445,2.548,2.445c0.806,0,1.626-0.322,2.183-0.893l0.527,0.717c-0.703,0.703-1.655,1.084-2.813,1.084
				C346.441,475.465,344.932,473.957,344.932,471.744z M348.404,468.947c-1.509,0-2.256,1.273-2.314,2.357h4.643
				C350.718,470.25,350.015,468.947,348.404,468.947z"/>
			<path style="fill:#1C262D;" d="M358.35,475.289v-1.055c-0.527,0.719-1.392,1.23-2.388,1.23c-1.845,0-3.149-1.406-3.149-3.705
				c0-2.256,1.289-3.721,3.149-3.721c0.952,0,1.817,0.469,2.388,1.244v-3.764h1.098v9.77H358.35z M358.35,473.371v-3.209
				c-0.396-0.615-1.245-1.143-2.124-1.143c-1.421,0-2.271,1.172-2.271,2.74c0,1.566,0.85,2.725,2.271,2.725
				C357.105,474.484,357.954,473.986,358.35,473.371z"/>
			<path style="fill:#1C262D;" d="M364.692,475.289v-9.77h1.099v3.764c0.571-0.775,1.421-1.244,2.388-1.244
				c1.845,0,3.149,1.465,3.149,3.721c0,2.299-1.304,3.705-3.149,3.705c-0.996,0-1.86-0.512-2.388-1.23v1.055H364.692z
				 M367.9,474.484c1.435,0,2.285-1.158,2.285-2.725c0-1.568-0.85-2.74-2.285-2.74c-0.864,0-1.729,0.527-2.109,1.143v3.209
				C366.171,473.986,367.036,474.484,367.9,474.484z"/>
			<path style="fill:#1C262D;" d="M372.528,477.063c0.161,0.072,0.425,0.117,0.601,0.117c0.483,0,0.806-0.162,1.055-0.748
				l0.469-1.068l-2.959-7.148h1.187l2.358,5.801l2.344-5.801h1.201l-3.545,8.51c-0.425,1.025-1.143,1.422-2.08,1.436
				c-0.234,0-0.601-0.043-0.806-0.103L372.528,477.063z"/>
		</g>
	</g>
</g>
</svg>
