<?xml version="1.0" encoding="UTF-8" standalone="no"?>
<!-- Created with Inkscape (http://www.inkscape.org/) -->

<svg
   width="1080"
   height="1080"
   viewBox="0 0 1080 1080"
   version="1.1"
   id="svg5"
   sodipodi:docname="logo.base4.svg"
   inkscape:version="1.2.2 (b0a8486541, 2022-12-01)"
   xmlns:inkscape="http://www.inkscape.org/namespaces/inkscape"
   xmlns:sodipodi="http://sodipodi.sourceforge.net/DTD/sodipodi-0.dtd"
   xmlns="http://www.w3.org/2000/svg"
   xmlns:svg="http://www.w3.org/2000/svg">
  <sodipodi:namedview
     id="namedview7"
     pagecolor="#ffffff"
     bordercolor="#000000"
     borderopacity="0.25"
     inkscape:showpageshadow="2"
     inkscape:pageopacity="0.0"
     inkscape:pagecheckerboard="0"
     inkscape:deskcolor="#d1d1d1"
     inkscape:document-units="px"
     showgrid="true"
     inkscape:zoom="0.30903185"
     inkscape:cx="313.8835"
     inkscape:cy="734.55211"
     inkscape:window-width="1920"
     inkscape:window-height="1043"
     inkscape:window-x="0"
     inkscape:window-y="0"
     inkscape:window-maximized="1"
     inkscape:current-layer="layer1">
    <inkscape:grid
       type="xygrid"
       id="grid111" />
  </sodipodi:namedview>
  <defs
     id="defs2" />
  <g
     inkscape:label="Layer 1"
     inkscape:groupmode="layer"
     id="layer1">
    <g
       id="g21486"
       inkscape:label="outer">
      <path
         d="M 812.46409,939.22165 C 645.19144,1051.9013 409.59777,1047.0996 247.21703,927.39638 90.630225,817.90026 11.734488,609.20582 61.359175,423.99877 90.271628,308.21113 164.74778,205.47925 264.51539,140.36521"
         style="display:inline;fill:none;stroke:#fdac24;stroke-width:74.2;stroke-opacity:1"
         id="path12219-7"
         inkscape:label="o2" />
      <path
         d="M 267.97469,139.36091 C 435.59497,27.199091 671.17267,32.729275 833.18247,152.93403 989.42996,262.91381 1067.68,471.8513 1017.4828,656.904 988.21238,772.60168 913.41892,875.10279 813.45039,939.90801"
         style="display:inline;fill:none;stroke:#ef562f;stroke-width:74.2;stroke-opacity:1"
         id="path12219"
         inkscape:label="o1" />
    </g>
    <g
       id="g21482"
       inkscape:label="inner"
       transform="matrix(1.0193287,0,0,0.9991023,-10.446259,0.4829209)">
      <path
         d="m 929.03838,443.34359 c 45.45396,172.85171 -49.66317,366.02227 -212.79756,442.5773 -160.19927,82.3087 -374.54834,40.8979 -487.5068,-98.9288 -37.07685,-44.30431 -63.73892,-96.93872 -77.384,-152.71584"
         style="font-size:192px;white-space:pre;inline-size:113.066;display:inline;fill:none;fill-opacity:1;stroke:#4a4585;stroke-width:75.7246;stroke-dasharray:none;stroke-opacity:1"
         id="path12219-5"
         inkscape:label="i2" />
      <path
         d="m 152.16305,633.72544 c -46.01174,-172.69953 48.47402,-366.16595 211.36771,-443.20552 159.95143,-82.78896 374.42421,-41.9961 487.82396,97.48429 37.21895,44.1935 64.0512,96.74804 77.87668,152.48585"
         style="display:inline;fill:none;stroke:#bd3d65;stroke-width:75.7246;stroke-dasharray:none;stroke-opacity:1"
         id="path12219-7-3"
         inkscape:label="i1" />
    </g>
    <g
       id="g21478"
       inkscape:label="s">
      <path
         d="m 735.65212,287.92945 c -0.0412,19.41074 -0.0824,38.82157 -0.11864,58.23232 -48.49469,-24.43368 -98.08892,-50.16587 -154.0841,-49.83267 -57.3152,-2.45235 -133.52545,2.06938 -160.71023,62.21429 -24.22448,54.59359 21.89572,106.12883 75.85481,110.67001 85.77748,20.36931 186.14086,20.51103 248.86072,91.74918 42.2436,38.93552 43.51229,99.56004 33.4226,152.08342 -8.35524,65.48118 -67.75243,104.09175 -124.67305,124.97816 -105.93892,44.845 -234.0017,22.26039 -321.50681,-51.22273 -0.25048,-31.29125 -0.50013,-62.58259 -0.7506,-93.87385 62.83859,45.5217 133.99064,93.28293 215.61197,84.54901 54.21936,-2.96796 126.27123,-12.9227 146.62603,-72.34791 C 713.29755,651.47182 675.08536,595.46502 624.56191,576.9283 540.05195,545.31918 438.21852,555.97087 367.05353,492.41431 299.03794,424.12089 327.03915,293.69894 412.3826,252.37608 c 98.86958,-60.57154 230.28165,-44.33927 323.32983,19.63065 -0.0165,5.3076 -0.0412,10.61512 -0.0577,15.92272 z"
         style="font-size:96px;white-space:pre;inline-size:113.066;display:inline;fill:#574585;fill-opacity:1;stroke:none;stroke-width:651.248"
         id="path17609"
         sodipodi:nodetypes="ccsscsccccscscccsssscccsscsscc"
         inkscape:label="s4" />
      <path
         d="m 416.03652,389.40797 c -4.57983,57.7326 58.0204,77.77712 103.83987,84.88566 81.74978,15.7539 175.20169,22.92918 231.34988,92.54691 44.36226,46.04984 37.30455,116.18631 21.19496,172.60038 -26.48295,69.42097 -103.57868,96.79913 -169.46243,114.59975 -93.90318,21.51334 -195.9468,-6.07715 -269.66284,-67.1784 -0.25048,-31.29125 -0.50013,-62.58259 -0.75061,-93.87384 62.83859,45.5217 133.99064,93.28292 215.61198,84.549 54.21936,-2.96796 126.27123,-12.9227 146.62603,-72.3479 19.11273,-53.65687 -19.09946,-109.66366 -69.62292,-128.20038 -84.50995,-31.60913 -186.34338,-20.95743 -257.50837,-84.51399 -26.07,-26.68754 -60.35402,-90.62122 -16.76247,-114.14132 18.48465,-10.69446 64.51603,-23.84333 65.14692,11.07413 z"
         style="font-size:96px;white-space:pre;inline-size:113.066;fill:#ef562f;fill-opacity:1;stroke:none;stroke-width:626.335;stroke-dasharray:none"
         id="path17609-2"
         sodipodi:nodetypes="cccccscscccsssscccscc"
         inkscape:label="s3" />
      <path
         d="m 784.63651,654.33642 c 2.12071,58.83329 -15.58944,125.56726 -71.01314,155.35624 -92.4206,58.78436 -214.2028,70.34081 -313.14004,20.62629 -23.68513,-16.93293 -72.04338,-26.73953 -67.1793,-62.35922 -0.19774,-24.76613 -0.39631,-49.53218 -0.59405,-74.29832 62.83858,45.5217 133.99063,93.28293 215.61197,84.54901 54.21936,-2.96796 126.27123,-12.9227 146.62603,-72.3479 -3.66196,-38.77297 35.08925,-79.55945 73.03416,-73.13378 7.37369,5.56137 12.24971,13.68426 16.65437,21.60768 z"
         style="font-size:96px;white-space:pre;inline-size:113.066;display:none;fill:#bd3d65;fill-opacity:1;stroke:none;stroke-width:626.335;stroke-dasharray:none"
         id="path17609-2-7"
         sodipodi:nodetypes="ccscccssscc"
         inkscape:label="s2" />
      <path
         d="m 537.7533,862.04055 c -74.43303,-0.26036 -148.10532,-27.49392 -205.16139,-75.23191 -0.25048,-31.58845 -0.50013,-63.1769 -0.75061,-94.76534 58.5062,41.48748 121.88265,87.93857 197.2365,85.78737 -29.94289,33.03725 96.8915,43.69834 8.6755,84.20988 z"
         style="font-size:96px;white-space:pre;inline-size:113.066;display:none;fill:#63b698;fill-opacity:1;stroke:none;stroke-width:626.335;stroke-dasharray:none"
         id="path17609-2-7-0"
         sodipodi:nodetypes="ccccscc"
         inkscape:label="s1" />
    </g>
  </g>
</svg>
